<svg xmlns="http://www.w3.org/2000/svg" width="24" height="24" viewBox="0 0 24 24">
    <rect class="background" fill="none" width="24" height="24"/>
    <path class="icon" fill="#272a2d" d="M301,411.89a7.383,7.383,0,0,0-3.277.691A2.708,2.708,0,0,0,296,414.89v3.578a7.5,7.5,0,0,0-3-.578,7.353,7.353,0,0,0-3.273.691A2.705,2.705,0,0,0,288,420.89v8a2.705,2.705,0,0,0,1.727,2.309,8.106,8.106,0,0,0,6.55,0,2.9,2.9,0,0,0,1.68-1.9,7.557,7.557,0,0,0,3.043.594,7.383,7.383,0,0,0,3.277-.691A2.708,2.708,0,0,0,306,426.89v-12a2.708,2.708,0,0,0-1.723-2.309A7.383,7.383,0,0,0,301,411.89Zm0,2a5.624,5.624,0,0,1,2.379.48c.543.27.621.508.621.52s-.078.25-.621.52a6.135,6.135,0,0,1-4.758,0c-.543-.27-.621-.508-.621-.52s.078-.25.621-.52a5.624,5.624,0,0,1,2.379-.48Zm-3,3.422a8.074,8.074,0,0,0,6,0v1.578c0,.012-.078.25-.621.52a6.135,6.135,0,0,1-4.758,0c-.543-.27-.621-.508-.621-.52Zm-5,2.578a5.624,5.624,0,0,1,2.379.48c.543.27.621.508.621.52s-.078.25-.621.52a6.145,6.145,0,0,1-4.762,0c-.539-.27-.617-.508-.617-.52s.078-.25.617-.52a5.658,5.658,0,0,1,2.383-.48Zm5,1.422a8.074,8.074,0,0,0,6,0v1.578c0,.012-.078.25-.621.52a6.135,6.135,0,0,1-4.758,0c-.543-.27-.621-.508-.621-.52Zm-8,2a8.074,8.074,0,0,0,6,0v1.578c0,.012-.078.25-.621.52a6.145,6.145,0,0,1-4.762,0c-.539-.27-.617-.508-.617-.52Zm8,2a8.074,8.074,0,0,0,6,0v1.578c0,.012-.078.25-.621.52a6.135,6.135,0,0,1-4.758,0c-.543-.27-.621-.508-.621-.52Zm-8,2a8.074,8.074,0,0,0,6,0v1.578c0,.012-.078.25-.621.52a6.145,6.145,0,0,1-4.762,0c-.539-.27-.617-.508-.617-.52Zm0,0" transform="translate(-285 -409.891)" />
</svg>