<svg xmlns="http://www.w3.org/2000/svg" width="222" height="162" viewBox="0 0 222 162"><defs><style>.a{fill:#4c5157;}</style></defs><path class="a" d="M1224.494,333.576h-220a1,1,0,0,1-1-1v-160a1,1,0,0,1,1-1h220a1,1,0,0,1,1,1v11.178a1,1,0,0,1-1,1h0l-219-.138v7.8h219a1,1,0,0,1,0,2h-219v137.16h218V202a1,1,0,0,1,2,0V332.576A1,1,0,0,1,1224.494,333.576Zm-219-150.96,218,.138v-9.178h-218ZM1196.333,222h-68a1,1,0,0,1-1-1V207a1,1,0,0,1,1-1h68a1,1,0,0,1,1,1v14A1,1,0,0,1,1196.333,222Zm-67-2h66V208h-66Zm67,24h-68a1,1,0,0,1-1-1V229a1,1,0,0,1,1-1h68a1,1,0,0,1,1,1v14A1,1,0,0,1,1196.333,244Zm-67-2h66V230h-66Zm67,47h-68a1,1,0,0,1-1-1V274a1,1,0,0,1,1-1h68a1,1,0,0,1,1,1v14A1,1,0,0,1,1196.333,289Zm-67-2h66V275h-66Zm67,26h-68a1,1,0,0,1-1-1V298a1,1,0,0,1,1-1h68a1,1,0,0,1,1,1v14A1,1,0,0,1,1196.333,313Zm-67-2h66V299h-66Zm-28.666-89h-68a1,1,0,0,1-1-1V207a1,1,0,0,1,1-1h68a1,1,0,0,1,1,1v14A1,1,0,0,1,1100.667,222Zm-67-2h66V208h-66Zm67,24h-68a1,1,0,0,1-1-1V229a1,1,0,0,1,1-1h68a1,1,0,0,1,1,1v14A1,1,0,0,1,1100.667,244Zm-67-2h66V230h-66Zm67,47h-68a1,1,0,0,1-1-1V274a1,1,0,0,1,1-1h68a1,1,0,0,1,1,1v14A1,1,0,0,1,1100.667,289Zm-67-2h66V275h-66Zm67,26h-68a1,1,0,0,1-1-1V298a1,1,0,0,1,1-1h68a1,1,0,0,1,1,1v14A1,1,0,0,1,1100.667,313Zm-67-2h66V299h-66ZM1035,178h-2v2h2Zm5.5,0h-2v2h2Zm5.5,0h-2v2h2Zm5.5,0h-2v2h2Zm3.5,0h-2v2h2Z" transform="translate(-1003.494 -171.576)"/></svg>