<svg xmlns="http://www.w3.org/2000/svg" width="222" height="162" viewBox="0 0 222 162"><defs><style>.a{fill:#4c5157;}</style></defs><path class="a" d="M758.127,173V333.253a.874.874,0,0,1-.874.874H537a.874.874,0,0,1-.874-.874V173a.874.874,0,0,1,.874-.874h105.12A.874.874,0,0,1,643,173a.85.85,0,0,1-.155.469.93.93,0,0,1,.724.9v84.99a.921.921,0,0,1-.208.566l37.956-33.754a.943.943,0,0,1,1.251,1.41l-39.642,35.253a.94.94,0,0,1-1.251,0l-41.993-37.343a.943.943,0,0,1,1.251-1.41L642.3,260.868l.8-.715a.921.921,0,0,1-.479.149.943.943,0,0,1-.942-.943v-84.99a.915.915,0,0,1,.158-.493H537.875v158.5h218.5v-158.5H652.133a.874.874,0,0,1,0-1.749h105.12A.874.874,0,0,1,758.127,173Z" transform="translate(-536.127 -172.127)"/></svg>