<svg xmlns="http://www.w3.org/2000/svg" xmlns:xlink="http://www.w3.org/1999/xlink" width="1920" height="1080" viewBox="0 0 1920 1080"><defs><style>.a{fill:#fff;stroke:#707070;}.b{clip-path:url(#a);}.c{fill:#3aaa35;}.d{fill:url(#b);}.e{fill:url(#c);}.f{fill:url(#d);}.g{fill:url(#e);}.h{fill:url(#f);}.i{fill:url(#g);}.j{fill:url(#h);}.k{fill:url(#i);}.l{fill:url(#j);}.m{fill:url(#k);}.n{fill:url(#l);}.o{fill:url(#m);}.p{fill:url(#n);}.q{fill:url(#o);}.r{fill:url(#p);}.s{fill:url(#q);}.t{fill:url(#r);}.u{fill:url(#s);}.v{fill:url(#t);}.w{fill:url(#u);}.x{fill:url(#v);}.y{fill:url(#w);}.z{fill:url(#x);}.aa{fill:url(#y);}.ab{fill:url(#z);}.ac{fill:url(#aa);}.ad{fill:url(#ab);}.ae{fill:url(#ac);}.af{fill:url(#ad);}.ag{fill:url(#ae);}.ah{fill:url(#af);}.ai{fill:url(#ag);}</style><clipPath id="a"><rect class="a" width="1920" height="1080" transform="translate(106 361)"/></clipPath><linearGradient id="b" x1="1" y1="0.5" x2="0" y2="0.5" gradientUnits="objectBoundingBox"><stop offset="0" stop-color="#40ad32"/><stop offset="1" stop-color="#46ae33"/></linearGradient><linearGradient id="c" x1="1" y1="0.5" x2="0" y2="0.5" gradientUnits="objectBoundingBox"><stop offset="0" stop-color="#46b030"/><stop offset="1" stop-color="#52b230"/></linearGradient><linearGradient id="d" x1="1" y1="0.5" x2="0" y2="0.5" gradientUnits="objectBoundingBox"><stop offset="0" stop-color="#4cb32d"/><stop offset="1" stop-color="#5eb62e"/></linearGradient><linearGradient id="e" x1="1" y1="0.5" x2="0" y2="0.5" gradientUnits="objectBoundingBox"><stop offset="0" stop-color="#52b62a"/><stop offset="1" stop-color="#6aba2c"/></linearGradient><linearGradient id="f" x1="1" y1="0.5" x2="0" y2="0.5" gradientUnits="objectBoundingBox"><stop offset="0" stop-color="#58b928"/><stop offset="1" stop-color="#77be29"/></linearGradient><linearGradient id="g" x1="1" y1="0.5" x2="0" y2="0.5" gradientUnits="objectBoundingBox"><stop offset="0" stop-color="#5ebc25"/><stop offset="1" stop-color="#83c227"/></linearGradient><linearGradient id="h" x1="1" y1="0.5" x2="0" y2="0.5" gradientUnits="objectBoundingBox"><stop offset="0" stop-color="#64bf22"/><stop offset="1" stop-color="#8fc625"/></linearGradient><linearGradient id="i" x1="1" y1="0.5" x2="0" y2="0.5" gradientUnits="objectBoundingBox"><stop offset="0" stop-color="#6ac21f"/><stop offset="1" stop-color="#9bca22"/></linearGradient><linearGradient id="j" x1="1" y1="0.5" x2="0" y2="0.5" gradientUnits="objectBoundingBox"><stop offset="0" stop-color="#70c51d"/><stop offset="1" stop-color="#a7ce20"/></linearGradient><linearGradient id="k" x1="1" y1="0.5" x2="0" y2="0.5" gradientUnits="objectBoundingBox"><stop offset="0" stop-color="#76c81a"/><stop offset="1" stop-color="#b3d21e"/></linearGradient><linearGradient id="l" x1="1" y1="0.5" x2="0" y2="0.5" gradientUnits="objectBoundingBox"><stop offset="0" stop-color="#7ccb17"/><stop offset="1" stop-color="#bfd61c"/></linearGradient><linearGradient id="m" x1="1" y1="0.5" x2="0" y2="0.5" gradientUnits="objectBoundingBox"><stop offset="0" stop-color="#82ce15"/><stop offset="1" stop-color="#cbda19"/></linearGradient><linearGradient id="n" x1="1" y1="0.5" x2="0" y2="0.5" gradientUnits="objectBoundingBox"><stop offset="0" stop-color="#88d112"/><stop offset="1" stop-color="#d8de17"/></linearGradient><linearGradient id="o" x1="1" y1="0.5" x2="0" y2="0.5" gradientUnits="objectBoundingBox"><stop offset="0" stop-color="#8ed40f"/><stop offset="1" stop-color="#e4e215"/></linearGradient><linearGradient id="p" x1="1" y1="0.5" x2="0" y2="0.5" gradientUnits="objectBoundingBox"><stop offset="0" stop-color="#94d70d"/><stop offset="1" stop-color="#f0e612"/></linearGradient><linearGradient id="q" x1="1" y1="0.5" x2="0" y2="0.5" gradientUnits="objectBoundingBox"><stop offset="0" stop-color="#9ada0a"/><stop offset="1" stop-color="#fcea10"/></linearGradient><linearGradient id="r" x1="1.011" y1="0.496" x2="0.01" y2="0.496" gradientUnits="objectBoundingBox"><stop offset="0" stop-color="#a0db0c"/><stop offset="0.281" stop-color="#badd0b"/><stop offset="0.669" stop-color="#dde010"/><stop offset="0.888" stop-color="#f1df11"/><stop offset="1" stop-color="#fade12"/></linearGradient><linearGradient id="s" x1="1.023" y1="0.493" x2="0.021" y2="0.493" gradientUnits="objectBoundingBox"><stop offset="0" stop-color="#a7dd0e"/><stop offset="0.281" stop-color="#bfdb0b"/><stop offset="0.669" stop-color="#dfda13"/><stop offset="0.888" stop-color="#f0d713"/><stop offset="1" stop-color="#f9d314"/></linearGradient><linearGradient id="t" x1="1.034" y1="0.489" x2="0.031" y2="0.489" gradientUnits="objectBoundingBox"><stop offset="0" stop-color="#adde0f"/><stop offset="0.281" stop-color="#c3da0a"/><stop offset="0.669" stop-color="#e0d515"/><stop offset="0.888" stop-color="#f0ce16"/><stop offset="1" stop-color="#f7c715"/></linearGradient><linearGradient id="u" x1="1.046" y1="0.486" x2="0.042" y2="0.486" gradientUnits="objectBoundingBox"><stop offset="0" stop-color="#b3df11"/><stop offset="0.05" stop-color="#b7dd0f"/><stop offset="0.281" stop-color="#c8d909"/><stop offset="0.669" stop-color="#e1d018"/><stop offset="0.888" stop-color="#efc618"/><stop offset="1" stop-color="#f6bc17"/></linearGradient><linearGradient id="v" x1="1.058" y1="0.469" x2="0.052" y2="0.469" gradientUnits="objectBoundingBox"><stop offset="0" stop-color="#bae113"/><stop offset="0.062" stop-color="#bede10"/><stop offset="0.281" stop-color="#ccd708"/><stop offset="0.669" stop-color="#e3ca1a"/><stop offset="0.888" stop-color="#efbd1a"/><stop offset="1" stop-color="#f4b019"/></linearGradient><linearGradient id="w" x1="1.07" y1="0.45" x2="0.063" y2="0.45" gradientUnits="objectBoundingBox"><stop offset="0" stop-color="#c0e214"/><stop offset="0.082" stop-color="#c6dd0f"/><stop offset="0.281" stop-color="#d1d608"/><stop offset="0.669" stop-color="#e4c51c"/><stop offset="0.888" stop-color="#eeb51c"/><stop offset="1" stop-color="#f3a51b"/></linearGradient><linearGradient id="x" x1="1.082" y1="0.444" x2="0.074" y2="0.444" gradientUnits="objectBoundingBox"><stop offset="0" stop-color="#c6e316"/><stop offset="0.084" stop-color="#cbdd10"/><stop offset="0.281" stop-color="#d5d407"/><stop offset="0.669" stop-color="#e5bf1f"/><stop offset="0.888" stop-color="#eeac1e"/><stop offset="1" stop-color="#f1991d"/></linearGradient><linearGradient id="y" x1="1.095" y1="0.439" x2="0.085" y2="0.439" gradientUnits="objectBoundingBox"><stop offset="0" stop-color="#cde418"/><stop offset="0.122" stop-color="#d4da0e"/><stop offset="0.281" stop-color="#dad306"/><stop offset="0.669" stop-color="#e7ba21"/><stop offset="0.888" stop-color="#eda321"/><stop offset="1" stop-color="#f08e1f"/></linearGradient><linearGradient id="z" x1="1.107" y1="0.434" x2="0.096" y2="0.434" gradientUnits="objectBoundingBox"><stop offset="0" stop-color="#d3e61a"/><stop offset="0.146" stop-color="#dad80c"/><stop offset="0.281" stop-color="#ded205"/><stop offset="0.669" stop-color="#e8b523"/><stop offset="0.888" stop-color="#ec9b23"/><stop offset="1" stop-color="#ee8220"/></linearGradient><linearGradient id="aa" x1="1.12" y1="0.429" x2="0.107" y2="0.429" gradientUnits="objectBoundingBox"><stop offset="0" stop-color="#d9e71c"/><stop offset="0.159" stop-color="#dfd60b"/><stop offset="0.281" stop-color="#e2d005"/><stop offset="0.669" stop-color="#e9af26"/><stop offset="0.888" stop-color="#ec9225"/><stop offset="1" stop-color="#ec7622"/></linearGradient><linearGradient id="ab" x1="1.133" y1="0.425" x2="0.119" y2="0.425" gradientUnits="objectBoundingBox"><stop offset="0" stop-color="#dfe81d"/><stop offset="0.022" stop-color="#dfe419"/><stop offset="0.168" stop-color="#e5d409"/><stop offset="0.281" stop-color="#e7cf04"/><stop offset="0.669" stop-color="#eaaa28"/><stop offset="0.888" stop-color="#ec8a27"/><stop offset="1" stop-color="#eb6b24"/></linearGradient><linearGradient id="ac" x1="1.146" y1="0.421" x2="0.13" y2="0.421" gradientUnits="objectBoundingBox"><stop offset="0" stop-color="#e6ea1f"/><stop offset="0.05" stop-color="#e7e217"/><stop offset="0.177" stop-color="#ead308"/><stop offset="0.281" stop-color="#ebce03"/><stop offset="0.669" stop-color="#eca52b"/><stop offset="0.888" stop-color="#eb8129"/><stop offset="1" stop-color="#e95f26"/></linearGradient><linearGradient id="ad" x1="1.16" y1="0.418" x2="0.142" y2="0.418" gradientUnits="objectBoundingBox"><stop offset="0" stop-color="#eceb21"/><stop offset="0.07" stop-color="#edde14"/><stop offset="0.183" stop-color="#efd006"/><stop offset="0.281" stop-color="#f0cc02"/><stop offset="0.669" stop-color="#ed9f2d"/><stop offset="0.888" stop-color="#eb792b"/><stop offset="1" stop-color="#e85428"/></linearGradient><linearGradient id="ae" x1="1.173" y1="0.414" x2="0.153" y2="0.414" gradientUnits="objectBoundingBox"><stop offset="0" stop-color="#f2ec23"/><stop offset="0.082" stop-color="#f2dc13"/><stop offset="0.185" stop-color="#f3cf06"/><stop offset="0.281" stop-color="#f4cb02"/><stop offset="0.669" stop-color="#ee9a2f"/><stop offset="0.888" stop-color="#ea702e"/><stop offset="1" stop-color="#e64829"/></linearGradient><linearGradient id="af" x1="1.187" y1="0.411" x2="0.165" y2="0.411" gradientUnits="objectBoundingBox"><stop offset="0" stop-color="#f9ee24"/><stop offset="0.003" stop-color="#f9ed23"/><stop offset="0.096" stop-color="#f9d910"/><stop offset="0.189" stop-color="#f9cd04"/><stop offset="0.281" stop-color="#f9c901"/><stop offset="0.669" stop-color="#f09432"/><stop offset="0.888" stop-color="#ea6830"/><stop offset="1" stop-color="#e53d2b"/></linearGradient><linearGradient id="ag" x1="1.201" y1="0.408" x2="0.177" y2="0.408" gradientUnits="objectBoundingBox"><stop offset="0" stop-color="#ffef26"/><stop offset="0.018" stop-color="#fee921"/><stop offset="0.102" stop-color="#fdd70e"/><stop offset="0.189" stop-color="#fdcb03"/><stop offset="0.281" stop-color="#fdc800"/><stop offset="0.669" stop-color="#f18f34"/><stop offset="0.888" stop-color="#e95f32"/><stop offset="1" stop-color="#e3312d"/></linearGradient></defs><g class="b" transform="translate(-106 -361)"><g transform="translate(-227.092 131)"><g transform="translate(0)"><g transform="translate(290.008)"><path class="c" d="M1483.1,555.285q106.3,0,199.506-40.233c63.569-27.489,122.4-69.326,174.867-124.351,41.965-44.013,79.972-96.512,112.965-156.041,56.171-101.349,78.6-189.124,78.824-190l-.964-.245c-.219.873-22.627,88.544-78.743,189.783-32.952,59.45-70.908,111.877-112.813,155.824-52.371,54.922-111.093,96.68-174.535,124.113-173.51,75.027-382.591,44.8-621.437-89.854C882.406,323.733,714.284,254.5,561.07,218.5c-122.595-28.8-235.974-36.51-337-22.912-89.9,12.1-153.164,39.194-190.406,59.79-40.375,22.328-59.744,42.068-59.934,42.265l.71.7c.191-.2,19.493-19.86,59.773-42.125,37.175-20.55,100.331-47.58,190.088-59.65C325.2,183,438.456,190.713,560.922,219.493c153.1,35.981,321.11,105.175,499.358,205.663C1214.029,511.831,1355.49,555.285,1483.1,555.285Z" transform="translate(26.265 -44.417)"/></g><g transform="translate(289.492 4.76)"><path class="d" d="M1437.521,563.42a503.967,503.967,0,0,0,164.854-27.363c70.635-24.272,138.1-64.957,200.513-120.926,49.923-44.767,96.747-99.357,139.172-162.254C2014.29,145.8,2049.158,50.47,2049.5,49.519l-.935-.342c-.344.949-35.178,96.18-107.345,203.163-42.379,62.824-89.148,117.348-139.009,162.057-62.314,55.874-129.658,96.49-200.164,120.716-171.152,58.81-361.987,22.518-567.2-107.869C872.314,323.978,712.9,253.949,561.029,219.1c-121.514-27.88-238.495-33.428-347.7-16.486C116.16,217.691,43.269,248.151-.768,271.05c-47.731,24.819-72.813,46.364-73.06,46.578l.648.758c.247-.214,25.27-21.7,72.921-46.475C43.718,249.05,116.51,218.64,213.55,203.595c109.076-16.911,225.927-11.36,347.308,16.495,151.746,34.824,311.039,104.8,473.458,208C1176.14,518.2,1311.127,563.42,1437.521,563.42Z" transform="translate(73.829 -49.177)"/></g><g transform="translate(288.97 9.527)"><path class="e" d="M1392.151,571.862a500.33,500.33,0,0,0,126.927-16.4c77-20.115,152.813-58.98,225.338-115.514,58.009-45.218,114.055-101.778,166.582-168.109C2000.427,158.906,2049.27,55.4,2049.753,54.37l-.9-.426c-.483,1.032-49.287,104.448-138.65,217.289C1857.727,337.5,1801.739,394,1743.794,439.164c-72.415,56.446-148.105,95.247-224.969,115.327-164.607,43-336.158,1.185-509.886-124.284C862.373,324.356,711.751,253.617,561.254,219.954c-120.405-26.933-241-30.328-358.43-10.089-104.48,18.007-187.06,51.78-237.94,76.941-55.136,27.267-85.97,50.585-86.275,50.818l.6.8c.305-.232,31.088-23.508,86.158-50.737,50.822-25.13,133.312-58.86,237.676-76.841,117.3-20.207,237.757-16.811,358.031,10.1,150.353,33.636,300.84,104.318,447.285,210.083C1138.145,524.752,1266.742,571.862,1392.151,571.862Z" transform="translate(121.391 -53.944)"/></g><g transform="translate(288.443 14.301)"><path class="f" d="M1347,580.713a486.289,486.289,0,0,0,87.91-8.09c82.207-15.08,165.7-51.461,248.165-108.13,65.956-45.326,131.406-103.659,194.53-173.381,107.468-118.7,171.765-230.78,172.4-231.9l-.863-.5c-.636,1.117-64.888,113.116-172.289,231.739-63.071,69.661-128.46,127.94-194.352,173.219-82.344,56.586-165.708,92.911-247.774,107.966a479.575,479.575,0,0,1-217.359-9.819c-79.318-22.164-158.159-65.447-234.333-128.647C852.573,324.931,710.825,253.6,561.733,221.162c-119.277-25.95-243.489-27.2-369.188-3.73-111.83,20.885-204.157,57.887-261.918,85.25-62.589,29.651-99.215,54.693-99.577,54.942l.562.825c.362-.249,36.941-25.258,99.474-54.879,57.709-27.336,149.954-64.3,261.68-85.162,125.565-23.444,249.64-22.187,368.782,3.737,148.927,32.4,290.524,103.666,420.86,211.8C1100.06,531.56,1222.345,580.713,1347,580.713Z" transform="translate(168.951 -58.718)"/></g><g transform="translate(287.911 19.08)"><path class="g" d="M1302.074,590.083a462.962,462.962,0,0,0,49.968-2.727c85.924-9.322,176.1-42.64,268.032-99.03,73.525-45.1,148.331-104.976,222.338-177.966,126-124.265,207.054-245.1,207.858-246.307l-.827-.557c-.8,1.2-81.812,121.97-207.742,246.165-73.953,72.933-148.7,132.76-222.156,177.818-91.8,56.308-181.839,89.578-267.613,98.883-67.714,7.347-133.846-.2-196.561-22.443-69.149-24.522-135.842-67.51-198.226-127.773C842.886,325.774,710.078,254.016,562.411,222.866c-118.126-24.918-245.966-24.052-379.967,2.573-65.8,13.074-168.83,39.871-286.007,93.284-70.082,31.945-112.526,58.638-112.948,58.9l.529.847c.421-.266,42.826-26.932,112.856-58.853,64.631-29.459,166.677-69.542,285.794-93.207,133.866-26.595,261.567-27.457,379.556-2.565C709.7,254.961,842.338,326.632,956.457,436.867c62.488,60.362,129.3,103.427,198.585,127.995A437.9,437.9,0,0,0,1302.074,590.083Z" transform="translate(216.512 -63.497)"/></g><g transform="translate(287.38 23.864)"><path class="h" d="M1257.281,600.124q7.462,0,14.98-.262c87.959-3.057,183.614-32.882,284.308-88.646,80.533-44.6,164.454-105.795,249.432-181.892,144.675-129.554,243.549-259.143,244.53-260.437l-.791-.607c-.98,1.293-99.807,130.818-244.415,260.309-84.922,76.045-168.78,137.2-249.245,181.757-100.553,55.683-196.056,85.466-283.856,88.517-61.833,2.153-120.824-9-175.329-33.15-59.576-26.393-115.306-68.984-165.642-126.589C833.251,326.97,709.414,255,563.183,225.216c-116.966-23.823-248.434-20.86-390.754,8.8-69.88,14.565-180.413,43.9-310.152,100.959-77.59,34.123-125.871,62.373-126.348,62.654l.5.863c.478-.281,48.723-28.509,126.27-62.611,71.567-31.471,183.435-74.522,309.956-100.891C314.84,205.36,446.172,202.4,563,226.2c146.008,29.742,269.656,101.6,367.509,213.586C980.94,497.5,1036.787,540.177,1096.5,566.629,1146.721,588.878,1200.743,600.124,1257.281,600.124Z" transform="translate(264.072 -68.281)"/></g><g transform="translate(286.845 28.652)"><path class="i" d="M1212.43,610.945c84.381,0,178.848-26.141,281.108-77.827,86.872-43.908,179.529-106.244,275.4-185.278C1932.148,213.286,2049.627,75.1,2050.8,73.717l-.758-.648c-1.167,1.38-118.6,139.511-281.746,274.009-95.809,78.985-188.4,141.278-275.207,185.151-108.471,54.823-208.137,80.853-296.265,77.414-55.83-2.19-107.889-16.333-154.734-42.039-50.82-27.886-96.82-70.11-136.724-125.495C823.575,328.591,708.681,256.672,563.87,228.35c-115.812-22.65-250.9-17.622-401.53,14.948C88.385,259.29-29.638,291.042-171.91,351.5-257,387.654-311.1,417.345-311.635,417.641l.477.877c.536-.3,54.608-29.969,139.654-66.107,78.49-33.352,200.162-79.186,334.075-108.141,150.486-32.538,285.443-37.563,401.12-14.938,144.55,28.274,259.233,100.06,340.865,213.362,39.992,55.508,86.1,97.828,137.055,125.787,46.98,25.78,99.187,39.964,155.171,42.16Q1204.542,610.946,1212.43,610.945Z" transform="translate(311.635 -73.069)"/></g><g transform="translate(286.309 33.444)"><path class="j" d="M1167.7,622.653c77.613,0,166.159-22.972,263.937-68.551,92.519-43.129,193.462-106.48,300.024-188.293,181.422-139.288,318.039-285.8,319.4-287.265l-.726-.683c-1.358,1.464-137.928,147.926-319.286,287.161C1624.546,446.79,1523.666,510.1,1431.213,553.2c-115.522,53.851-218.126,76.109-304.96,66.145-50.06-5.741-95.651-22.355-135.506-49.378C947.776,540.828,910.337,498.817,879.47,445.1,845.1,385.288,799.34,336.728,743.453,300.763c-50.8-32.691-111.1-55.709-179.219-68.416-114.694-21.392-253.4-14.329-412.269,21-78,17.345-203.462,51.368-358.17,114.963-92.521,38.033-152.4,69.036-152.992,69.344l.456.889c.594-.309,60.443-31.3,152.93-69.314,85.356-35.086,216.754-83.5,358.008-114.91,158.736-35.294,297.308-42.354,411.863-20.983,67.995,12.683,128.171,35.654,178.86,68.275,55.751,35.877,101.4,84.324,135.69,143.993,30.943,53.851,68.485,95.972,111.583,125.194,39.989,27.114,85.729,43.783,135.949,49.543A364.841,364.841,0,0,0,1167.7,622.653Z" transform="translate(359.198 -77.861)"/></g><g transform="translate(285.772 38.239)"><path class="k" d="M1122.6,635.265c71.792,0,155.073-20.415,248.556-61.017,97.521-42.354,206.3-106.65,323.313-191.1,199.215-143.775,355.3-298.235,356.857-299.778l-.7-.712c-1.553,1.543-157.6,155.956-356.748,299.686-116.954,84.406-225.668,148.665-323.124,190.991-121.765,52.884-226.179,71.478-310.337,55.259-44.754-8.624-84.462-27.3-118.018-55.51-36-30.266-65.887-72.317-88.828-124.986C814.593,358.6,746.55,295.436,651.332,260.349c-85.844-31.632-194.9-40.937-324.13-27.659-103.358,10.621-219.787,35.63-346.054,74.333-214.972,65.894-386.207,149.8-387.912,150.637l.436.9c1.7-.84,172.879-84.714,387.778-150.583,126.2-38.683,242.568-63.679,345.859-74.291,129.078-13.263,237.98-3.977,323.681,27.6,45.753,16.859,85.58,40.386,118.374,69.928,35.179,31.69,63.2,71.148,83.3,117.28,23,52.813,52.982,94.988,89.1,125.354,33.687,28.319,73.546,47.068,118.467,55.724A329.376,329.376,0,0,0,1122.6,635.265Z" transform="translate(406.764 -82.656)"/></g><g transform="translate(285.233 43.036)"><path class="l" d="M1076.58,648.632c66.914,0,145.739-18.4,235.479-55.073,101.973-41.667,218.188-106.879,345.414-193.822,216.6-148.02,392.371-309.93,394.121-311.548l-.673-.736c-1.749,1.617-177.472,163.485-394.016,311.463-127.168,86.9-243.317,152.078-345.225,193.719-127.321,52.024-232.618,67.238-312.964,45.225-40.011-10.963-74.432-31.4-102.308-60.749-29.8-31.37-52.922-73.766-68.733-126.013-24.817-82.008-77.542-141.583-156.709-177.072-80.729-36.189-190.131-47.995-325.18-35.09-108,10.32-232.551,36.378-370.2,77.45C-258.759,386.31-452.4,476.765-454.329,477.67l.421.906c1.927-.9,195.511-91.332,429.79-161.236,137.585-41.051,262.072-67.095,370-77.409,134.867-12.889,244.105-1.109,324.675,35.008,38.16,17.107,70.45,39.986,95.975,68,27.192,29.846,47.441,66.333,60.186,108.449,15.857,52.4,39.061,94.929,68.966,126.413,28,29.48,62.577,50.011,102.765,61.023Q1034.264,648.637,1076.58,648.632Z" transform="translate(454.329 -87.453)"/></g><g transform="translate(284.694 47.834)"><path class="m" d="M1029.124,662.435c62.937,0,138.2-16.877,224.986-50.543,106-41.118,229.332-107.229,366.575-196.5,233.653-151.978,429.23-320.7,431.177-322.386l-.648-.758c-1.948,1.686-197.48,170.37-431.078,322.31-137.184,89.229-260.454,155.307-366.388,196.4-132.342,51.335-237.813,63.588-313.483,36.421a186.847,186.847,0,0,1-88.2-65.328c-24.2-32.5-41.117-75.547-50.293-127.95C788.455,378.078,748.2,321.647,682.122,286.382c-74.592-39.81-183.266-53.462-323.013-40.582C247.361,256.1,115.594,283.295-32.53,326.629-284.71,400.4-499.754,496.716-501.9,497.681l.406.912c2.142-.964,217.131-97.252,469.25-171.009,148.061-43.314,279.763-70.5,391.447-80.79,139.543-12.861,248.034.754,322.451,40.47,65.793,35.114,105.874,91.3,119.131,167.013,9.2,52.558,26.185,95.749,50.476,128.375a187.827,187.827,0,0,0,88.666,65.67Q979.248,662.439,1029.124,662.435Z" transform="translate(501.896 -92.251)"/></g><g transform="translate(284.153 52.633)"><path class="n" d="M979.892,676.214c59.794,0,132.4-15.763,217.174-47.231,109.722-40.731,239.942-107.716,387.046-199.1,250.441-155.573,465.874-330.313,468.021-332.059l-.625-.778C2049.361,98.8,1833.97,273.5,1583.58,429.041c-147.045,91.344-277.2,158.3-386.863,199.006-136.986,50.85-242.145,60.645-312.552,29.11-32.177-14.411-57.557-37.753-75.44-69.379-19.033-33.661-30.093-77.624-32.871-130.667-3.75-71.606-33.9-125.542-89.616-160.311-68.057-42.471-175.4-57.272-319.016-44-114.844,10.616-253.036,39.106-410.74,84.677-268.491,77.586-503.6,179.2-505.946,180.213l.394.918c2.344-1.016,237.406-102.6,505.837-180.172,157.642-45.554,295.77-74.031,410.551-84.64,143.408-13.257,250.53,1.5,318.4,43.852,55.421,34.586,85.415,88.254,89.147,159.514,2.786,53.2,13.888,97.312,33,131.108,17.99,31.816,43.527,55.3,75.9,69.8C910.774,670.17,942.882,676.214,979.892,676.214Z" transform="translate(549.463 -97.05)"/></g><g transform="translate(283.612 57.434)"><path class="o" d="M928.826,689.493c57.4,0,128.251-14.994,211.98-44.944,113.256-40.513,250.2-108.325,407.028-201.554,267-158.721,502.224-338.552,504.568-340.349l-.6-.8c-2.344,1.8-237.528,181.6-504.479,340.288-156.772,93.194-293.657,160.978-406.852,201.468C999.075,694.185,894.5,702.069,829.662,667.044c-28.977-15.652-50.427-40.2-63.752-72.956-14.172-34.838-19.546-79.912-15.974-133.971,4.539-68.711-17.339-120.915-65.027-155.164C623.288,260.7,517.527,245.41,370.558,259.52,253.053,270.8,109.07,300.785-57.391,348.644c-283.4,81.48-537.111,188-539.64,189.062l.385.922c2.53-1.066,256.193-107.562,539.538-189.025,166.4-47.842,310.32-77.815,427.764-89.088,146.714-14.082,252.255,1.141,313.675,45.253,47.388,34.033,69.128,85.942,64.612,154.284-3.581,54.212,1.818,99.436,16.047,134.416,13.415,32.977,35.016,57.693,64.2,73.458C855.818,682.308,889.1,689.493,928.826,689.493Z" transform="translate(597.031 -101.851)"/></g><g transform="translate(283.069 62.234)"><path class="p" d="M876.163,701.909c55.661,0,125.571-14.51,209.218-43.5,116.694-40.45,260.24-109.019,426.649-203.8,283.314-161.37,538.1-345.3,540.643-347.139l-.58-.812c-2.541,1.839-257.291,185.743-540.559,347.084C1345.179,548.487,1201.69,617.03,1085.055,657.46c-145.681,50.5-249.583,57.025-308.823,19.4-26.18-16.628-43.992-42.226-52.94-76.082-9.516-36-9.274-82.314.719-137.656,12.138-67.224-2.776-118.471-44.326-152.318-55.607-45.3-159.853-60.484-309.855-45.137C249.91,277.936,100.618,309.633-73.9,359.877c-297.12,85.542-568,196.728-570.7,197.842l.377.926c2.7-1.114,273.535-112.282,570.6-197.809,174.46-50.227,323.693-81.912,443.554-94.175,149.733-15.32,253.73-.2,309.124,44.92,41.247,33.6,56.042,84.525,43.974,151.362-10.018,55.489-10.255,101.949-.7,138.092,9.014,34.108,26.971,59.9,53.371,76.671C801.11,693.844,834.684,701.909,876.163,701.909Z" transform="translate(644.599 -106.651)"/></g><g transform="translate(282.525 67.035)"><path class="q" d="M822.335,713.288c54.471,0,124.172-14.256,208.61-42.744,120.1-40.523,270.152-109.767,445.973-205.81,299.339-163.514,573.3-350.585,576.029-352.455l-.56-.827c-2.731,1.871-276.653,188.917-575.949,352.406-175.769,96.015-325.762,165.235-445.812,205.739C880.691,720.184,777.375,725.861,723.55,686.47c-23.741-17.374-38.163-43.882-42.864-78.787-5-37.126.851-84.755,17.4-141.564,19.5-66.963,10.7-117.959-26.167-151.572C621.744,268.8,518.777,254.2,365.882,271.138c-122.23,13.542-276.5,47.153-458.521,99.9-309.9,89.8-596.668,205.537-599.528,206.695l.371.928C-688.936,577.5-402.205,461.781-92.356,372c181.967-52.73,336.178-86.329,458.35-99.864,152.6-16.906,255.3-2.386,305.253,43.157,36.558,33.333,45.267,83.986,25.88,150.55C680.543,522.782,674.68,570.551,679.7,607.817c4.74,35.186,19.3,61.92,43.265,79.461C746.664,704.621,779.875,713.288,822.335,713.288Z" transform="translate(692.167 -111.452)"/></g><g transform="translate(281.98 71.838)"><path class="r" d="M767.824,723.649c53.728,0,123.829-14.177,209.825-42.512,123.534-40.7,279.993-110.544,465.03-207.58,315.03-165.207,607.624-354.569,610.542-356.462l-.539-.84c-2.918,1.893-295.478,191.233-610.467,356.418-184.988,97.01-341.4,166.828-464.878,207.514C823.126,731,720.2,736.259,671.427,695.819,649.806,677.9,638.56,650.6,638,614.7c-.595-38.21,10.895-87.194,34.148-145.592,26.966-67.718,23.776-119.058-9.484-152.59-45.356-45.728-147.346-59.372-303.132-40.55C235,291.017,75.974,326.714-113.14,382.071c-321.971,94.248-623.586,214.472-626.6,215.675l.367.93c3.01-1.2,304.587-121.412,626.514-215.646C76.205,327.688,235.18,292,359.654,276.964c155.466-18.782,257.177-5.235,302.307,40.265,32.952,33.222,36.069,84.2,9.265,151.512-23.3,58.521-34.816,107.636-34.22,145.979.565,36.206,11.933,63.752,33.789,81.873C692.555,714.633,724.987,723.649,767.824,723.649Z" transform="translate(739.736 -116.255)"/></g><g transform="translate(281.435 76.641)"><path class="s" d="M713.04,733.138c53.336,0,124.343-14.236,212.53-42.681,127.011-40.969,289.8-111.335,483.843-209.146C1739.779,314.785,2050.4,123.82,2053.5,121.91l-.519-.852c-3.1,1.909-313.685,192.854-644.013,359.361-194,97.787-356.736,168.134-483.7,209.086-158.548,51.14-261.345,56.326-305.528,15.414-19.786-18.321-28.043-46.293-24.543-83.137,3.729-39.251,20.9-89.612,51.023-149.684,34.746-69.283,36.931-121.428,6.5-154.986-41.139-45.361-142.487-57.749-301.22-36.822-126.88,16.727-290.549,54.646-486.463,112.7C-468.52,491.838-784.155,616.512-787.3,617.76l.366.929c3.148-1.247,318.748-125.906,652.255-224.738C61.179,335.91,224.8,298,351.624,281.282c158.4-20.882,259.449-8.6,300.354,36.5,30.128,33.221,27.891,84.987-6.65,153.861-30.182,60.184-47.384,110.665-51.125,150.04-3.531,37.172,4.833,65.423,24.86,83.968C638.854,723.98,670.263,733.138,713.04,733.138Z" transform="translate(787.305 -121.058)"/></g><g transform="translate(263.846 73.662)"><path class="t" d="M758.453,732.133c52.328,0,122.7-14.731,210.6-44.161,123.994-41.514,283.012-112.2,472.637-210.1,322.842-166.674,626.574-357.044,629.6-358.947l-.527-.848c-3.029,1.9-306.731,192.254-629.537,358.907-189.579,97.873-348.549,168.54-472.494,210.037-154.777,51.822-254.972,58.045-297.8,18.5-19.43-17.94-27.272-45.7-23.31-82.517,4.225-39.25,21.973-89.824,52.753-150.32,34.227-67.385,36.689-117.954,7.32-150.3-40.575-44.692-142.522-55.594-303.008-32.4C276.417,308.516,110.618,348.741-88.1,409.538-426.422,513.045-747.2,642.08-750.4,643.371l.37.928c3.2-1.291,323.943-130.312,662.226-233.807C110.864,349.711,276.612,309.5,404.837,290.97c160.14-23.141,261.791-12.345,302.13,32.087,29.06,32.009,26.547,82.2-7.472,149.172-30.835,60.6-48.618,111.3-52.855,150.668-4,37.148,3.951,65.195,23.626,83.362C688.952,723.512,718.425,732.133,758.453,732.133Z" transform="translate(750.4 -118.079)"/></g><g transform="translate(246.255 70.682)"><path class="u" d="M803.943,731.133c51.27,0,120.942-15.238,208.515-45.683,120.982-42.058,276.239-113.062,461.459-211.039C1789.26,307.6,2086.135,117.84,2089.1,115.942l-.534-.843c-2.961,1.9-299.8,191.641-615.111,358.429-185.175,97.952-340.385,168.936-461.318,210.978-151.01,52.5-248.6,59.763-290.068,21.591-19.057-17.544-26.471-45.088-22.036-81.867,4.732-39.244,23.075-90.035,54.52-150.96,33.716-65.532,36.446-114.566,8.117-145.744-40-44.021-142.537-53.427-304.768-27.96C328.23,319.923,160.3,362.469-41.217,426.021c-343.1,108.2-669.025,241.627-672.277,242.962l.377.926c3.25-1.335,329.144-134.745,672.2-242.935,201.473-63.538,369.35-106.072,498.967-126.42,161.881-25.412,264.118-16.111,303.879,27.647,28.018,30.836,25.237,79.489-8.267,144.61-31.5,61.031-49.878,111.935-54.624,151.3-4.476,37.119,3.045,64.951,22.352,82.725C738.992,723.036,766.586,731.133,803.943,731.133Z" transform="translate(713.494 -115.099)"/></g><g transform="translate(228.665 67.703)"><path class="v" d="M849.509,730.138c50.16,0,119.092-15.762,206.277-47.246,117.973-42.6,269.479-113.92,450.308-211.969C1813.96,303.99,2104,114.85,2106.9,112.958l-.542-.838c-2.893,1.891-292.906,191.012-600.736,357.925-180.784,98.025-332.244,169.321-450.171,211.906C908.2,735.127,813.2,743.433,773.111,706.645c-18.672-17.134-25.645-44.45-20.726-81.187,5.255-39.233,24.206-90.239,56.33-151.6,33.213-63.722,36.2-111.265,8.886-141.308C778.19,289.2,675.065,281.295,511.1,309.054,380.048,331.241,209.995,376.122,5.669,442.448-342.2,555.373-673.286,693.216-676.589,694.595l.381.924C-672.9,694.14-341.853,556.311,5.981,443.4,210.258,377.087,380.262,332.218,511.269,310.04c163.613-27.7,266.429-19.9,305.6,23.182,27,29.7,23.965,76.86-9.032,140.17C775.657,534.856,756.67,585.975,751.4,625.325c-4.967,37.081,2.113,64.69,21.039,82.058C788.976,722.556,814.734,730.138,849.509,730.138Z" transform="translate(676.589 -112.12)"/></g><g transform="translate(211.075 64.724)"><path class="w" d="M895.149,729.146c49,0,117.144-16.3,203.879-48.85C1214,637.15,1361.765,565.524,1538.216,467.408,1838.63,300.362,2121.87,111.859,2124.7,109.974l-.55-.833c-2.826,1.884-286.035,190.368-586.416,357.394-176.407,98.093-324.126,169.7-439.053,212.825-143.5,53.85-235.886,63.2-274.6,27.8C805.8,690.455,799.284,663.38,804.7,626.689c5.791-39.217,25.366-90.44,58.181-152.247,32.716-61.957,35.955-108.048,9.628-136.994-38.812-42.672-142.51-49.065-308.2-19C431.867,342.473,259.692,389.7,52.564,458.819-300.082,576.5-636.328,718.784-639.684,720.207l.386.922c3.356-1.424,339.571-143.7,692.18-261.362,207.084-69.1,379.211-116.32,511.6-140.339,165.337-30,268.726-23.707,307.292,18.695,26.013,28.6,22.725,74.307-9.773,135.85-32.869,61.906-52.478,113.238-58.286,152.569-5.469,37.041,1.154,64.414,19.687,81.36C838.9,722.07,862.869,729.146,895.149,729.146Z" transform="translate(639.684 -109.141)"/></g><g transform="translate(193.484 61.745)"><path class="x" d="M-602.385,746.738c3.407-1.468,344.792-148.215,702.175-270.657C309.678,404.171,483.928,354.594,617.7,328.724c167.063-32.309,271.01-27.536,308.962,14.184,25.047,27.536,21.519,71.827-10.488,131.646-33.572,62.354-53.819,113.9-60.179,153.207-5.986,36.994.168,64.122,18.29,80.631,37.631,34.281,127.768,23.942,267.9-30.73,111.978-43.686,256.011-115.617,428.1-213.794,292.987-167.149,569.453-355,572.211-356.877l-.557-.828c-2.758,1.878-279.2,189.71-572.151,356.838-172.046,98.152-316.035,170.062-427.967,213.73-139.751,54.521-229.54,64.926-266.87,30.918-17.857-16.265-23.905-43.09-17.977-79.727,6.343-39.195,26.554-90.636,60.073-152.893,32.228-60.234,35.709-104.912,10.346-132.8-38.2-41.994-142.459-46.869-309.884-14.491C483.693,353.621,309.4,403.211,99.465,475.136-257.955,597.591-599.37,744.352-602.778,745.819Z" transform="translate(602.778 -106.162)"/></g><g transform="translate(175.895 58.766)"><path class="y" d="M-565.478,772.348c3.459-1.513,350.02-152.757,712.178-280.006,212.692-74.732,389.062-126.685,524.21-154.416,168.779-34.632,273.283-31.384,310.605,9.654,24.107,26.5,20.347,69.419-11.174,127.555-34.29,62.808-55.189,114.57-62.116,153.843-6.517,36.941-.849,63.812,16.846,79.867,36.241,32.883,123.778,21.492,260.176-33.857,108.988-44.226,249.3-116.458,417.045-214.688,285.587-167.24,555.313-354.424,558-356.294l-.566-.823c-2.69,1.871-272.389,189.035-557.944,356.255-167.7,98.206-307.971,170.415-416.913,214.624-136.012,55.192-223.2,66.646-259.136,34.041C889.6,675.311,904.9,597.091,971.213,475.614c31.748-58.552,35.461-101.856,11.036-128.71-37.579-41.314-142.4-44.664-311.54-9.957C535.517,364.688,359.1,416.652,146.367,491.4-215.825,618.66-562.416,769.918-565.874,771.431Z" transform="translate(565.874 -103.183)"/></g><g transform="translate(158.306 55.788)"><path class="z" d="M-528.567,797.959c3.51-1.559,355.25-157.327,722.182-289.406,215.5-77.57,393.983-131.909,530.5-161.511,170.486-36.965,275.537-35.251,312.227,5.1,23.19,25.5,19.208,67.082-11.838,123.574-35.019,63.27-56.585,115.246-64.1,154.481-7.062,36.88-1.9,63.483,15.357,79.069,34.843,31.479,119.782,19.034,252.451-36.991,106-44.764,242.608-117.292,406.022-215.568,278.215-167.32,541.231-353.82,543.856-355.685l-.573-.816c-2.625,1.863-265.614,188.346-543.8,355.645-163.371,98.252-299.934,170.757-405.894,215.5-132.285,55.863-216.867,68.367-251.4,37.167-35.23-31.828-18.762-109.992,48.946-232.32,31.276-56.911,35.213-98.877,11.7-124.735-36.946-40.63-142.312-42.448-313.173-5.4-136.562,29.611-315.092,83.963-530.631,161.548C-173.69,639.7-525.458,795.485-528.969,797.044Z" transform="translate(528.969 -100.205)"/></g><g transform="translate(140.716 52.809)"><path class="aa" d="M-491.658,823.567c3.563-1.6,360.487-161.919,732.192-298.854,218.3-80.423,398.9-137.162,536.79-168.642,172.2-39.315,277.784-39.136,313.827.524,22.3,24.538,18.1,64.812-12.475,119.7-35.763,63.737-58.011,115.926-66.125,155.116-7.621,36.814-2.972,63.135,13.817,78.234,33.441,30.071,115.777,16.569,244.724-40.127,103.027-45.3,235.934-118.12,395.034-216.436C1937,285.7,2193.339,99.894,2195.9,98.037l-.583-.811c-2.557,1.857-258.873,187.643-529.713,355.008-159.059,98.292-291.926,171.089-394.908,216.37-128.56,56.527-210.54,70.085-243.661,40.3-34.28-30.829-16.612-108.923,52.512-232.114,30.811-55.309,34.963-95.975,12.342-120.867-36.3-39.945-142.21-40.224-314.783-.824-137.93,31.49-318.574,88.242-536.915,168.678-371.737,136.95-728.69,297.277-732.252,298.88Z" transform="translate(492.064 -97.226)"/></g><g transform="translate(123.126 49.831)"><path class="ab" d="M-454.747,849.178c3.613-1.649,365.727-166.535,742.2-308.352,221.1-83.289,403.817-142.439,543.069-175.809,173.9-41.672,280.02-43.04,315.406-4.071,21.432,23.6,17.028,62.606-13.086,115.932-36.523,64.211-59.468,116.614-68.2,155.751-8.2,36.739-4.083,62.767,12.224,77.362,32.022,28.659,111.759,14.1,237-43.266,100.055-45.832,229.277-118.939,384.082-217.287C1961.5,282,2211.2,96.9,2213.7,95.052l-.592-.8c-2.49,1.85-252.166,186.924-515.693,354.346-154.765,98.323-283.947,171.407-383.96,217.22-124.845,57.189-204.221,71.8-235.921,43.43-33.289-29.795-14.388-107.807,56.178-231.872,30.353-53.746,34.712-93.144,12.959-117.1-35.651-39.26-142.1-37.989-316.374,3.773C691,397.423,508.246,456.586,287.1,539.89-89.405,681.72-451.546,846.618-455.159,848.268Z" transform="translate(455.159 -94.248)"/></g><g transform="translate(105.536 46.852)"><path class="ac" d="M-417.839,874.788c3.666-1.694,370.971-171.175,752.219-317.9,223.905-86.169,408.73-147.743,549.343-183.01,175.6-44.041,282.24-46.965,316.964-8.687,20.587,22.694,15.985,60.464-13.675,112.265-37.294,64.69-60.956,117.306-70.322,156.382-8.789,36.656-5.23,62.379,10.575,76.453,30.6,27.24,107.73,11.63,229.267-46.407,97.09-46.364,222.64-119.751,373.166-218.126C1985.973,278.277,2229.07,93.91,2231.5,92.067l-.6-.8c-2.425,1.842-245.5,186.191-501.742,353.656-150.488,98.349-276,171.716-373.049,218.059-121.139,57.847-197.909,73.512-228.18,46.561-32.255-28.721-12.086-106.638,59.949-231.586,29.9-52.222,34.459-90.387,13.548-113.439-18.324-20.2-56.629-29.158-113.834-26.635-51.9,2.291-120.575,14.076-204.107,35.027C742.83,408.188,557.965,469.774,334.021,555.959-47.258,702.693-414.588,872.185-418.254,873.88Z" transform="translate(418.254 -91.269)"/></g><g transform="translate(87.947 43.874)"><path class="ad" d="M-380.93,900.4c3.718-1.74,376.218-175.835,762.235-327.485C608.013,483.848,794.947,419.84,936.916,382.667c177.292-46.421,284.453-50.9,318.5-13.322,19.765,21.813,14.974,58.383-14.239,108.694-38.082,65.176-62.473,118-72.5,157.01-9.4,36.567-6.41,61.971,8.872,75.5,29.158,25.821,103.692,9.153,221.534-49.547,94.133-46.891,216.024-120.556,362.29-218.947C2010.4,274.545,2246.936,90.917,2249.3,89.082l-.607-.791c-2.361,1.835-238.87,185.444-487.863,352.939C1614.6,539.6,1492.742,613.24,1398.649,660.111c-117.443,58.5-191.606,75.222-220.434,49.692-31.177-27.61-9.7-105.416,63.824-231.258,29.458-50.733,34.208-87.7,14.117-109.874-17.977-19.839-56.252-28.2-113.764-24.839-52.173,3.044-121.39,15.786-205.728,37.868C794.656,418.883,607.684,482.9,380.941,571.981-5.107,723.644-377.631,897.75-381.349,899.491Z" transform="translate(381.349 -88.291)"/></g><g transform="translate(70.357 40.896)"><path class="ae" d="M-344.02,926.008c3.769-1.787,381.468-180.52,772.254-337.118,229.507-91.972,418.548-158.424,561.872-197.512,178.98-48.811,286.652-54.859,320.025-17.977,18.965,20.96,13.992,56.362-14.779,105.22-38.882,65.667-64.022,118.7-74.72,157.633-10.021,36.469-7.629,61.539,7.108,74.516,27.715,24.4,99.647,6.674,213.8-52.685,91.182-47.415,209.428-121.351,351.453-219.753C2034.8,270.8,2264.8,87.925,2267.1,86.1l-.617-.784C2264.185,87.141,2034.2,270,1792.425,437.51c-141.99,98.379-260.2,172.292-351.344,219.686-113.753,59.152-185.314,76.923-212.686,52.821-30.052-26.459-7.236-104.141,67.811-230.886,29.021-49.281,33.953-85.081,14.66-106.4-17.623-19.478-55.87-27.228-113.682-23.037-52.442,3.8-122.2,17.5-207.341,40.723C846.482,429.511,657.4,495.976,427.862,587.961,37.049,744.572-340.674,923.316-344.444,925.1Z" transform="translate(344.444 -85.313)"/></g><g transform="translate(52.768 37.918)"><path class="af" d="M-307.111,951.616c3.821-1.833,386.72-185.222,782.272-346.794,232.306-94.89,423.451-163.8,568.125-204.808,180.67-51.214,288.846-58.834,321.529-22.653,18.188,20.135,13.041,54.4-15.3,101.839-39.7,66.164-65.6,119.407-77,158.251-10.664,36.361-8.887,61.085,5.283,73.486,26.254,22.978,95.586,4.2,206.062-55.82,88.239-47.934,202.854-122.136,340.659-220.542C2059.144,267.037,2282.665,84.931,2284.9,83.111l-.626-.776c-2.23,1.819-225.73,183.907-460.323,351.427-137.772,98.383-252.351,172.561-340.554,220.476-110.076,59.8-179.025,78.616-204.936,55.945-28.875-25.27-4.68-102.81,71.914-230.467,28.59-47.864,33.7-82.528,15.181-103.027-17.266-19.114-55.486-26.255-113.589-21.227-52.706,4.562-123.006,19.228-208.948,43.59C898.306,440.071,707.124,508.992,474.783,603.9,79.2,765.48-303.718,948.88-307.54,950.714Z" transform="translate(307.54 -82.335)"/></g><g transform="translate(35.178 34.94)"><path class="ag" d="M-270.2,977.227c3.875-1.88,391.975-189.947,792.291-356.511,235.1-97.823,428.353-169.2,574.373-212.138,182.349-53.623,291.03-62.824,323.017-27.345,17.432,19.333,12.119,52.49-15.791,98.549-40.528,66.664-67.217,120.113-79.326,158.861-11.327,36.245-10.187,60.608,3.39,72.413,24.785,21.554,91.513,1.718,198.323-58.949,85.3-48.451,196.3-122.912,329.908-221.314,227.47-167.532,444.549-348.855,446.714-350.667l-.635-.769c-2.167,1.812-219.224,183.119-446.67,350.632-133.575,98.378-244.538,172.817-329.807,221.248-106.4,60.437-172.746,80.308-197.182,59.063-27.646-24.039-2.03-101.421,76.134-230,28.168-46.484,33.443-80.041,15.681-99.742-16.907-18.75-55.093-25.28-113.487-19.409-52.971,5.325-123.808,20.959-210.548,46.467C950.123,450.569,756.842,521.955,521.7,619.793,121.361,786.369-266.762,974.445-270.636,976.326Z" transform="translate(270.636 -79.357)"/></g><g transform="translate(17.588 31.963)"><path class="ah" d="M-233.295,1002.836c3.925-1.927,397.229-194.691,802.308-366.268,237.9-100.767,433.25-174.617,580.615-219.5,184.027-56.044,293.2-66.829,324.49-32.057,16.7,18.557,11.225,50.636-16.266,95.347-41.371,67.17-68.861,120.822-81.708,159.463-12.009,36.12-11.528,60.109,1.429,71.3,23.309,20.124,87.426-.756,190.581-62.07,82.376-48.963,189.771-123.678,319.2-222.069C2107.713,259.474,2318.393,78.944,2320.5,77.141l-.645-.761c-2.1,1.8-212.762,182.317-433.1,349.81-129.4,98.368-236.762,173.06-319.106,222-102.748,61.072-166.479,81.985-189.424,62.171-26.363-22.766.713-99.973,80.475-229.477,27.751-45.135,33.187-77.617,16.157-96.544-16.542-18.384-54.688-24.3-113.375-17.584-53.23,6.091-124.605,22.7-212.142,49.355-147.4,44.89-342.78,118.751-580.716,219.533-405.1,171.589-798.431,364.363-802.356,366.289Z" transform="translate(233.732 -76.38)"/></g><g transform="translate(0 28.985)"><path class="ai" d="M-196.388,1028.446c3.977-1.973,402.487-199.452,812.325-376.062,240.7-103.724,438.146-180.059,586.852-226.884,185.7-58.476,295.367-70.852,325.948-36.787,15.983,17.8,10.359,48.835-16.718,92.23-42.228,67.68-70.54,121.531-84.147,160.056-12.709,35.985-12.912,59.584-.6,70.14,21.816,18.7,83.329-3.23,182.835-65.182,79.457-49.471,183.265-124.434,308.539-222.8,213.284-167.48,417.609-347.2,419.648-349l-.656-.752c-2.038,1.8-206.345,181.5-419.607,348.964-125.245,98.349-229.023,173.289-308.45,222.741-99.1,61.7-160.225,83.663-181.664,65.271-25.02-21.453,3.56-98.467,84.945-228.9,27.341-43.821,32.93-75.255,16.613-93.433-16.177-18.017-54.28-23.315-113.255-15.752-53.487,6.86-125.4,24.441-213.727,52.256-148.74,46.835-346.219,123.182-586.948,226.92C205.681,828.088-192.85,1025.575-196.828,1027.55Z" transform="translate(196.828 -73.402)"/></g></g></g></g></svg>