<svg xmlns="http://www.w3.org/2000/svg" width="80" height="99.999" viewBox="0 0 80 99.999"><defs><style>.a{fill:#348e7a;}.b{fill:#dde1e5;}</style></defs><path class="a" d="M1362.144,741.891a12,12,0,0,0,13.222-11.856c0-.028,0-.054,0-.082a11.994,11.994,0,0,0-23.986-.268c0,.09-.014.177-.014.268,0,.152.017.3.023.45A12.01,12.01,0,0,0,1362.144,741.891Zm1.226-21.938a10,10,0,1,1-10,10A10.011,10.011,0,0,1,1363.37,719.953Zm-1,11h-5v-2h5v-5h2v5h5v2h-5v5h-2Zm24.5,41.5,5.5-5.5,5.5,5.5h-4.4v9.9h-2.2v-9.9Zm-3.3,14.3h17.6v-12.1h2.2v12.1a2.217,2.217,0,0,1-2.2,2.2h-17.6a2.217,2.217,0,0,1-2.2-2.2v-12.1h2.2Z" transform="translate(-1338.375 -704.953)"/><path class="b" d="M1348.056,790.746l3.3,2.258-2.256,3.3-3.3-2.258Zm39.42-50.579-3.3-2.256-2.257,3.3,3.3,2.256Zm-28.133,34.067,3.3,2.258,2.256-3.3-3.3-2.257Zm27.088-39.626,3.3,2.258,2.257-3.3-3.3-2.257Zm-36.118,52.835,3.3,2.258,2.257-3.3-3.3-2.257Zm68.062-57.9v73.4a2.049,2.049,0,0,1-2.086,2.007h-75.828a2.049,2.049,0,0,1-2.086-2.007V706.96a2.049,2.049,0,0,1,2.086-2.007h50.547a2.134,2.134,0,0,1,1.42.537l25.276,22.584A1.973,1.973,0,0,1,1418.375,729.544Zm-4.176,1.412h-23.855V709.1l-.154-.137h-47.647V798.81l1-1.459,3.3,2.257-.909,1.331H1414.2Zm-50.342,36.676,3.3,2.256,2.257-3.3-3.3-2.256Zm15.8-23.116-2.257,3.3,3.3,2.256,2.257-3.3Zm-24.83,36.323,3.3,2.258,2.257-3.3-3.3-2.258Zm13.544-19.812,3.3,2.256,2.257-3.3-3.3-2.255Zm4.515-6.6,3.3,2.256,2.257-3.3-3.3-2.256Z" transform="translate(-1338.375 -704.953)"/></svg>