<svg xmlns="http://www.w3.org/2000/svg" width="80" height="99.999" viewBox="0 0 80 99.999"><defs><style>.a{fill:#dde1e5;}.b{fill:#348e7a;}</style></defs><path class="a" d="M1519.42,727.639l-25.275-22.584a2.137,2.137,0,0,0-1.421-.537h-50.547a2.049,2.049,0,0,0-2.086,2.007v95.984a2.049,2.049,0,0,0,2.086,2.007h75.828a2.048,2.048,0,0,0,2.086-2.007v-73.4A1.976,1.976,0,0,0,1519.42,727.639Zm-3.505,72.864h-71.656V708.532h47.647l.155.137v21.852h23.854Z" transform="translate(-1440.091 -704.518)"/><path class="b" d="M1481.086,753.518h5v2h-5v5h-2v-5h-5v-2h5v-5h2Zm.227,12.938a12,12,0,1,1,10.773-11.937A12.124,12.124,0,0,1,1481.313,766.456Zm8.773-11.937a10,10,0,1,0-10,10A10.011,10.011,0,0,0,1490.086,754.519Z" transform="translate(-1440.091 -704.518)"/></svg>