<svg xmlns="http://www.w3.org/2000/svg" width="80" height="100" viewBox="0 0 80 100"><defs><style>.a{fill:#dde1e5;}.b{fill:#348e7a;}</style></defs><path class="a" 
    d="M1574.192,707.494h-4v-4h4Zm-30,6h4v-4h-4Zm0,8h4v-4h-4Zm0,16h4v-4h-4Zm0,8h4v-4h-4Zm22,58h4v-4h-4Zm0-100h-4v4h4Zm-8,100h4v-4h-4Zm0-100h-4v4h4Zm-8,100h4v-4h-4Zm-6-42h4v-4h-4Zm0,40h4v-4h-4Zm38-98h-4v4h4Zm-38,50h4v-4h-4Zm54-50h-4v4h4Zm-8,0h-4v4h4Zm-40,0h-4v4h4Zm-6,74h4v-4h-4Zm0-8h4v-4h-4Zm0,24h4v-4h-4Zm0-8h4v-4h-4Zm0-56h4v-4h-4Zm76,32h4v-4h-4Zm0,8h4v-4h-4Zm0-16h4v-4h-4Zm0,24h4v-4h-4Zm0,8h4v-4h-4Zm0,8h4v-4h-4Zm0-84v4h4v-4Zm0,12h4v-4h-4Zm0,24h4v-4h-4Zm-46,58h4v-4h-4Zm46-66h4v-4h-4Zm0-8h4v-4h-4Zm-14-26h-4v4h4Zm14,98h4v-4h-4Zm-22,2h4v-4h-4Zm-16,0h4v-4h-4Zm8,0h4v-4h-4Zm32-100h-4v4h4Zm-16,100h4v-4h-4Zm8,0h4v-4h-4Zm0-100h-4v4h4Z" transform="translate(-1544.192 -703.494)"/><path class="b" d="M1583.093,747.994v9.9h2.2v-9.9h4.4l-5.5-5.5-5.5,5.5Zm9.9,14.3h-17.6v-12.1h-2.2v12.1a2.216,2.216,0,0,0,2.2,2.2h17.6a2.217,2.217,0,0,0,2.2-2.2v-12.1h-2.2Z" transform="translate(-1544.192 -703.494)"/></svg>