<svg xmlns="http://www.w3.org/2000/svg" width="80" height="100" viewBox="0 0 80 100"><defs><style>.a{fill:#f39526;}.b{fill:#fff;}.c{fill:#aeb4bb;}</style></defs><g transform="translate(-1334 -816)"><circle class="a" cx="16" cy="16" r="16" transform="translate(1358 850)"/><path class="b" d="M1380.414,857a1,1,0,0,0-.707.293l-2,2-1.414,1.414L1365,872v4h4l14.707-14.707a1,1,0,0,0,0-1.414l-2.586-2.586A1,1,0,0,0,1380.414,857Zm0,2.414,1.172,1.172-1.293,1.293-1.172-1.172Zm-2.707,2.707,1.172,1.172L1368.172,874H1367v-1.172Z"/><path class="c" d="M1413.329,839.122l-25.276-22.585a2.134,2.134,0,0,0-1.42-.537h-50.547a2.05,2.05,0,0,0-2.086,2.007v95.986a2.05,2.05,0,0,0,2.086,2.007h75.828a2.05,2.05,0,0,0,2.086-2.007v-73.4A1.975,1.975,0,0,0,1413.329,839.122Zm-3.505,72.865h-71.656V820.014h47.647l.154.137V842h23.855Z"/></g></svg>