<svg xmlns="http://www.w3.org/2000/svg" width="80" height="100" viewBox="0 0 80 100"><defs><style>.a{fill:#aeb4bb;}.b{fill:#f39526;}</style></defs><g transform="translate(-1334 -816)"><path class="a" d="M1413.329,839.122l-25.276-22.585a2.134,2.134,0,0,0-1.42-.537h-50.547a2.05,2.05,0,0,0-2.086,2.007v95.986a2.05,2.05,0,0,0,2.086,2.007h75.828a2.05,2.05,0,0,0,2.086-2.007v-73.4A1.975,1.975,0,0,0,1413.329,839.122Zm-3.505,72.865h-71.656V820.014h47.647l.154.137V842h23.855Z"/><path class="b" d="M1380.414,859.414l1.172,1.172-1.293,1.293-1.172-1.172ZM1367,872.828V874h1.172l10.707-10.707-1.172-1.172ZM1390,866a16,16,0,1,1-16-16A16,16,0,0,1,1390,866Zm-6.293-6.121-2.586-2.586a1,1,0,0,0-1.414,0l-2,2-1.414,1.414L1365,872v4h4l14.707-14.707A1,1,0,0,0,1383.707,859.879Z" transform="translate(1)"/></g></svg>