<svg xmlns="http://www.w3.org/2000/svg" width="80" height="100" viewBox="0 0 80 100"><defs><style>.a{fill:#fff;}.b{fill:#aeb4bb;}.c{fill:#f39526;}</style></defs><g transform="translate(-1334 -816)"><path class="a" d="M1409.824,842h-23.854V820.151l-.154-.137h-47.647v91.973h71.656Z"/><path class="b" d="M1413.329,839.122l-25.276-22.585a2.134,2.134,0,0,0-1.42-.537h-50.547a2.05,2.05,0,0,0-2.086,2.007v95.986a2.05,2.05,0,0,0,2.086,2.007h75.828a2.05,2.05,0,0,0,2.086-2.007v-73.4A1.975,1.975,0,0,0,1413.329,839.122Zm-3.505,72.865h-71.656V820.014h47.647l.154.137V842h23.855Z"/><circle class="c" cx="16" cy="16" r="16" transform="translate(1358 850)"/></g></svg>