<svg xmlns="http://www.w3.org/2000/svg" width="24" height="24" viewBox="0 0 24 24"><defs><style>.a{fill:#1a242c;}.b{fill:none;}</style></defs><path class="a" d="M12,1A6.043,6.043,0,0,0,6.123,5.787l1.955.426A4.015,4.015,0,0,1,12,3a3.917,3.917,0,0,1,4,4V8H6a2.015,2.015,0,0,0-2,2V20a2.015,2.015,0,0,0,2,2H18a2.015,2.015,0,0,0,2-2V10a2.015,2.015,0,0,0-2-2V7A5.987,5.987,0,0,0,12,1ZM6,10H18V20H6Zm6,3a2,2,0,1,0,2,2A2.006,2.006,0,0,0,12,13Z" transform="translate(0 1)"/><rect class="b" width="24" height="24"/></svg>