<?xml version="1.0" encoding="UTF-8" standalone="no"?>
<!DOCTYPE svg PUBLIC "-//W3C//DTD SVG 1.1//EN" "http://www.w3.org/Graphics/SVG/1.1/DTD/svg11.dtd">
<svg width="100%" height="100%" viewBox="0 0 2126 237" version="1.1" xmlns="http://www.w3.org/2000/svg" xmlns:xlink="http://www.w3.org/1999/xlink" xml:space="preserve" xmlns:serif="http://www.serif.com/" style="fill-rule:evenodd;clip-rule:evenodd;stroke-linejoin:round;stroke-miterlimit:1.41421;">
    <g id="Ebene-1" serif:id="Ebene 1" transform="matrix(4.16667,0,0,4.16667,0,0)">
        <g transform="matrix(1,0,0,1,87.7896,24.4869)">
            <path d="M0,3.416L1.45,3.416C4.157,3.416 5.575,3.706 5.575,5.672C5.575,7.863 3.545,8.701 0.515,8.701L-1.096,8.701L0,3.416ZM-7.928,12.956L2.32,12.826C7.477,12.762 11.569,10.507 11.569,5.736C11.569,3.255 9.797,1.772 7.219,1.386L7.219,1.321C10.763,0.902 13.117,-1.354 13.117,-4.383C13.117,-8.637 9.088,-9.54 6.768,-9.54L-3.223,-9.54L-7.928,12.956ZM1.837,-5.285L3.384,-5.285C5.64,-5.285 7.122,-4.995 7.122,-3.19C7.122,-1.644 5.64,-0.645 3.126,-0.645L0.87,-0.645L1.837,-5.285Z" style="fill:rgb(35,31,32);fill-rule:nonzero;"/>
        </g>
        <g transform="matrix(1,0,0,1,111.031,37.0574)">
            <path d="M0,-16.406L-0.645,-12.957L-0.581,-12.957C0.354,-14.924 2.224,-16.792 4.608,-16.792C5.382,-16.792 6.284,-16.696 7.057,-16.373L5.737,-11.249C4.995,-11.829 4.157,-11.958 3.062,-11.958C0.612,-11.958 -0.838,-9.832 -1.257,-7.35L-2.9,0.386L-8.702,0.386L-6.091,-12.023C-5.801,-13.473 -5.543,-14.891 -5.382,-16.406L0,-16.406Z" style="fill:rgb(35,31,32);fill-rule:nonzero;"/>
        </g>
        <g transform="matrix(1,0,0,1,136.683,25.4211)">
            <path d="M0,7.638C-0.29,9.088 -0.548,10.506 -0.708,12.022L-6.091,12.022L-5.64,9.282L-5.704,9.282C-7.38,11.151 -9.12,12.408 -12.182,12.408C-15.566,12.408 -17.403,9.894 -17.403,6.607C-17.403,5.479 -17.306,4.834 -16.952,3.062L-15.404,-4.77L-9.41,-4.77L-11.021,3.094C-11.183,3.932 -11.408,4.77 -11.408,5.641C-11.408,6.639 -10.763,7.638 -9.153,7.574C-6.703,7.574 -5.252,5.447 -4.834,2.965L-3.19,-4.77L2.611,-4.77L0,7.638Z" style="fill:rgb(35,31,32);fill-rule:nonzero;"/>
        </g>
        <g transform="matrix(1,0,0,1,143.966,32.6727)">
            <path d="M0,-7.638C0.291,-9.088 0.548,-10.506 0.709,-12.021L6.092,-12.021L5.64,-9.282L5.705,-9.282C7.38,-11.151 9.121,-12.408 12.183,-12.408C15.566,-12.408 17.403,-9.894 17.403,-6.607C17.403,-5.479 17.307,-4.835 16.952,-3.062L15.405,4.77L9.411,4.77L11.022,-3.093C11.184,-3.932 11.409,-4.77 11.409,-5.64C11.409,-6.639 10.764,-7.638 9.153,-7.574C6.704,-7.574 5.253,-5.447 4.835,-2.965L3.191,4.77L-2.61,4.77L0,-7.638Z" style="fill:rgb(35,31,32);fill-rule:nonzero;"/>
        </g>
        <g transform="matrix(1,0,0,1,167.073,32.6727)">
            <path d="M0,-7.638C0.29,-9.088 0.547,-10.506 0.708,-12.021L6.09,-12.021L5.639,-9.282L5.704,-9.282C7.379,-11.151 9.12,-12.408 12.182,-12.408C15.565,-12.408 17.402,-9.894 17.402,-6.607C17.402,-5.479 17.306,-4.835 16.951,-3.062L15.404,4.77L9.41,4.77L11.021,-3.093C11.182,-3.932 11.408,-4.77 11.408,-5.64C11.408,-6.639 10.763,-7.638 9.152,-7.574C6.703,-7.574 5.252,-5.447 4.834,-2.965L3.19,4.77L-2.611,4.77L0,-7.638Z" style="fill:rgb(35,31,32);fill-rule:nonzero;"/>
        </g>
        <g transform="matrix(1,0,0,1,203.618,25.2923)">
            <path d="M0,7.509C-1.612,8.282 -3.707,8.669 -5.253,8.669C-8.798,8.669 -9.7,7.252 -9.765,5.446L2.127,5.446C2.353,4.447 2.545,2.965 2.545,2.288C2.545,-2.804 -0.773,-5.027 -5.188,-5.027C-12.666,-5.027 -15.244,0.967 -15.244,4.866C-15.244,9.088 -12.214,12.536 -6.607,12.536C-4.931,12.536 -2.771,12.215 -0.741,11.602L0,7.509ZM-9.411,2.159C-8.991,0.548 -7.638,-1.16 -5.124,-1.16C-2.997,-1.16 -2.289,0.355 -2.289,2.159L-9.411,2.159Z" style="fill:rgb(35,31,32);fill-rule:nonzero;"/>
        </g>
        <g transform="matrix(1,0,0,1,217.572,37.0574)">
            <path d="M0,-16.406L-0.645,-12.957L-0.58,-12.957C0.354,-14.924 2.224,-16.792 4.608,-16.792C5.382,-16.792 6.284,-16.696 7.058,-16.373L5.736,-11.249C4.995,-11.829 4.157,-11.958 3.062,-11.958C0.612,-11.958 -0.838,-9.832 -1.257,-7.35L-2.9,0.386L-8.702,0.386L-6.091,-12.023C-5.801,-13.473 -5.543,-14.891 -5.382,-16.406L0,-16.406Z" style="fill:rgb(35,31,32);fill-rule:nonzero;"/>
        </g>
        <g transform="matrix(1,0,0,1,241.452,37.4433)">
            <path d="M0,-22.496L6.059,-22.496L1.386,0L-4.673,0L0,-22.496Z" style="fill:rgb(35,31,32);fill-rule:nonzero;"/>
        </g>
        <g transform="matrix(1,0,0,1,251.216,32.6727)">
            <path d="M0,-7.638C0.29,-9.088 0.548,-10.506 0.709,-12.021L6.091,-12.021L5.64,-9.282L5.705,-9.282C7.38,-11.151 9.121,-12.408 12.182,-12.408C15.566,-12.408 17.403,-9.894 17.403,-6.607C17.403,-5.479 17.306,-4.835 16.951,-3.062L15.405,4.77L9.411,4.77L11.022,-3.093C11.183,-3.932 11.408,-4.77 11.408,-5.64C11.408,-6.639 10.763,-7.638 9.153,-7.574C6.704,-7.574 5.252,-5.447 4.833,-2.965L3.191,4.77L-2.61,4.77L0,-7.638Z" style="fill:rgb(35,31,32);fill-rule:nonzero;"/>
        </g>
        <g transform="matrix(1,0,0,1,276.547,25.6144)">
            <path d="M0,-0.902L-3.642,-0.902L-2.739,-4.963L0.774,-4.963L1.224,-7.09C1.966,-10.57 4.35,-12.73 8.088,-12.73C9.539,-12.73 11.183,-12.569 12.407,-12.214L11.312,-8.25C10.731,-8.476 10.119,-8.669 9.474,-8.669C8.088,-8.669 7.219,-7.831 6.799,-5.962L6.573,-4.963L10.893,-4.963L9.99,-0.902L5.735,-0.902L3.093,11.828L-2.708,11.828L0,-0.902Z" style="fill:rgb(35,31,32);fill-rule:nonzero;"/>
        </g>
        <g transform="matrix(1,0,0,1,308,30.32)">
            <path d="M0,-2.546C0,-6.768 -3.029,-10.055 -8.733,-10.055C-15.309,-10.055 -19.563,-6.059 -19.563,-0.161C-19.563,4.06 -17.049,7.509 -10.828,7.509C-4.544,7.509 0,4.447 0,-2.546M-5.995,-2.61C-5.995,1.192 -7.703,3.449 -10.41,3.449C-12.376,3.48 -13.568,1.967 -13.568,-0.291C-13.568,-2.965 -11.828,-5.995 -9.024,-5.995C-6.768,-5.995 -5.995,-4.351 -5.995,-2.61" style="fill:rgb(35,31,32);fill-rule:nonzero;"/>
        </g>
        <g transform="matrix(1,0,0,1,319.44,37.0574)">
            <path d="M0,-16.406L-0.646,-12.957L-0.58,-12.957C0.354,-14.924 2.223,-16.792 4.608,-16.792C5.382,-16.792 6.283,-16.696 7.058,-16.373L5.735,-11.249C4.995,-11.829 4.157,-11.958 3.062,-11.958C0.611,-11.958 -0.839,-9.832 -1.258,-7.35L-2.9,0.386L-8.702,0.386L-6.092,-12.023C-5.802,-13.473 -5.544,-14.891 -5.383,-16.406L0,-16.406Z" style="fill:rgb(35,31,32);fill-rule:nonzero;"/>
        </g>
        <g transform="matrix(1,0,0,1,329.268,32.6727)">
            <path d="M0,-7.638C0.291,-9.088 0.549,-10.506 0.71,-12.021L5.867,-12.021L5.223,-8.959L5.286,-8.992C6.704,-11.118 8.863,-12.408 11.216,-12.408C13.182,-12.408 15.181,-11.28 15.631,-8.992C17.049,-11.118 19.209,-12.408 21.625,-12.408C24.203,-12.408 26.847,-11.151 26.847,-7.412C26.847,-6.317 26.718,-4.835 26.46,-3.642L24.719,4.77L18.919,4.77L20.595,-3.384C20.788,-4.254 20.916,-5.157 20.916,-5.833C20.916,-6.93 20.4,-7.574 19.048,-7.574C16.631,-7.574 15.985,-4.77 15.6,-2.965L13.956,4.77L8.154,4.77L9.83,-3.384C10.023,-4.254 10.153,-5.157 10.153,-5.833C10.153,-6.93 9.637,-7.574 8.283,-7.574C5.867,-7.574 5.223,-4.77 4.835,-2.965L3.191,4.77L-2.609,4.77L0,-7.638Z" style="fill:rgb(35,31,32);fill-rule:nonzero;"/>
        </g>
        <g transform="matrix(1,0,0,1,370.035,20.6509)">
            <path d="M0,16.792L4.738,16.792C5.382,11.731 6.864,7.961 6.864,5.318C6.864,1.193 3.578,-0.386 -0.418,-0.386C-3.029,-0.386 -4.866,0 -6.573,0.581L-7.154,4.803C-5.221,3.803 -3.803,3.481 -1.708,3.481C0.194,3.481 1.386,4.448 1.386,5.64C1.386,5.866 1.386,6.092 1.321,6.317C0.516,6.253 -0.645,6.156 -1.805,6.156C-6.928,6.156 -11.054,8.187 -11.054,12.312C-11.054,15.567 -9.056,17.178 -5.446,17.178C-3.19,17.178 -1.03,16.372 0.194,14.438L0.194,14.374L0.258,14.438L0,16.792ZM-5.574,11.636C-5.574,10.153 -3.545,9.153 -0.773,9.25C-0.418,9.25 0.291,9.25 0.774,9.347C0.354,11.603 -1.128,13.311 -3.608,13.311C-4.833,13.311 -5.574,12.408 -5.574,11.636" style="fill:rgb(35,31,32);fill-rule:nonzero;"/>
        </g>
        <g transform="matrix(1,0,0,1,382.121,32.5754)">
            <path d="M0,-11.924L3.319,-11.924L4.124,-15.533L10.247,-17.177L9.088,-11.924L13.083,-11.924L12.374,-7.863L8.152,-7.863L7.153,-3.19C6.895,-1.933 6.67,-1.095 6.67,-0.289C6.67,0.838 7.411,1.579 8.572,1.579C9.184,1.579 9.829,1.322 10.44,1.096L9.797,4.932C8.572,5.124 7.348,5.253 6.187,5.253C3.221,5.253 0.87,3.803 0.87,0.29C0.87,-0.548 0.998,-1.385 1.385,-3.158L2.384,-7.863L-0.71,-7.863L0,-11.924Z" style="fill:rgb(35,31,32);fill-rule:nonzero;"/>
        </g>
        <g transform="matrix(1,0,0,1,400.006,37.4434)">
            <path d="M0,-16.792L5.865,-16.792L2.385,0L-3.481,0L0,-16.792Z" style="fill:rgb(35,31,32);fill-rule:nonzero;"/>
        </g>
        <g transform="matrix(1,0,0,1,413.443,37.4425)">
            <path d="M0,-24.171L5.867,-24.171L2.772,-9.733L2.837,-9.733L8.412,-16.791L15.02,-16.791L8.089,-8.702L12.44,0L5.994,0L2.547,-8.315L2.482,-8.315L0.71,0L-5.188,0L0,-24.171Z" style="fill:rgb(35,31,32);fill-rule:nonzero;"/>
        </g>
        <g transform="matrix(1,0,0,1,439.482,14.9469)">
            <path d="M0,22.496L6.511,22.496L9.186,17.693L17.919,17.693L18.532,22.496L24.591,22.496L20.917,0L13.375,0L0,22.496ZM17.339,13.439L11.539,13.439L16.308,4.641L16.373,4.641L17.339,13.439Z" style="fill:rgb(35,31,32);fill-rule:nonzero;"/>
        </g>
        <g transform="matrix(1,0,0,1,488.829,32.1575)">
            <path d="M0,-11.925C-1.966,-12.795 -3.9,-13.15 -6.51,-13.15C-12.537,-13.15 -14.954,-8.895 -14.954,-4.642C-14.954,-0.645 -12.407,1.224 -9.347,1.224C-8.573,1.224 -7.8,1.095 -6.961,0.837L-5.963,-3.61L-9.54,-3.61L-8.67,-7.864L0.773,-7.864L-1.901,4.672C-4.158,5.35 -7.8,5.671 -9.733,5.671C-16.984,5.671 -21.142,1.385 -21.142,-4.802C-21.142,-12.279 -16.662,-17.596 -6.221,-17.596C-3.48,-17.596 -1.16,-17.146 1.289,-16.501L0,-11.925Z" style="fill:rgb(35,31,32);fill-rule:nonzero;"/>
        </g>
        <g transform="matrix(1,0,0,1,207.072,49.7311)">
            <path d="M0,-4.255L5.865,-4.255L4.963,0L-0.902,0L0,-4.255Z" style="fill:rgb(51,189,164);fill-rule:nonzero;"/>
        </g>
        <g transform="matrix(1,0,0,1,235.055,49.7125)">
            <path d="M0,-4.254L5.865,-4.254L4.963,0L-0.903,0L0,-4.254Z" style="fill:rgb(51,189,164);fill-rule:nonzero;"/>
        </g>
        <g transform="matrix(1,0,0,1,162.632,49.7262)">
            <path d="M0,-4.254L5.865,-4.254L4.963,0L-0.902,0L0,-4.254Z" style="fill:rgb(51,189,164);fill-rule:nonzero;"/>
        </g>
        <g transform="matrix(1,0,0,1,100.517,49.7086)">
            <path d="M0,-4.254L5.864,-4.254L4.963,0L-0.903,0L0,-4.254Z" style="fill:rgb(51,189,164);fill-rule:nonzero;"/>
        </g>
        <g transform="matrix(1,0,0,1,18.0093,49.7164)">
            <path d="M0,-4.254L5.865,-4.254L4.963,0L-0.903,0L0,-4.254Z" style="fill:rgb(51,189,164);fill-rule:nonzero;"/>
        </g>
        <g transform="matrix(1,0,0,1,402.464,13.1588)">
            <path d="M0,-4.254L5.864,-4.254L4.964,0L-0.903,0L0,-4.254Z" style="fill:rgb(51,189,164);fill-rule:nonzero;"/>
        </g>
    </g>
</svg>
