<svg xmlns="http://www.w3.org/2000/svg" width="24" height="24" viewBox="0 0 24 24"><defs><style>.a{fill:none;}.b{fill:#348e7a;}</style></defs><rect class="a" width="24" height="24"/><path class="b" d="M727.368,1167.651v7h0v-7Zm8,16h0v-7h0Zm-8-7v7h0v-7Zm-10-9v7h0v-7Zm18,0v7h0v-7Zm-18,9v7h0v-7Zm10,7h8v0h-8Zm8-7v7h-8v-7Zm-2,2h-4v3h4Zm-8,5h-8v0h8v-7h0Zm0-7v7h-8v-7Zm-2,2h-4v3h4Zm12-11h-8v0h8Zm0,0v7h-8v-7Zm-2,2h-4v3h4Zm-16-2h8v7h0v-7h-8Zm8,0v7h-8v-7Zm-2,2h-4v3h4Z" transform="translate(-714.367 -1163.648)"/></svg>