<?xml version="1.0" encoding="utf-8"?>
<!-- Generator: Adobe Illustrator 16.0.3, SVG Export Plug-In . SVG Version: 6.00 Build 0)  -->
<!DOCTYPE svg PUBLIC "-//W3C//DTD SVG 1.1//EN" "http://www.w3.org/Graphics/SVG/1.1/DTD/svg11.dtd">
<svg version="1.1" id="Ebene_1" xmlns="http://www.w3.org/2000/svg" xmlns:xlink="http://www.w3.org/1999/xlink" x="0px" y="0px"
	 width="233.994px" height="26.969px" viewBox="0 0 233.994 26.969" enable-background="new 0 0 233.994 26.969"
	 xml:space="preserve">
<title>elektroform-logo-white</title>
<polygon fill="#FFFFFF" points="0,6.262 0,22.25 12.222,22.25 12.222,20.436 2.302,20.436 2.302,14.943 11.337,14.943
	11.337,13.128 2.302,13.128 2.302,8.077 11.958,8.077 11.958,6.262 "/>
<rect x="15.744" y="6.262" fill="#FFFFFF" width="2.169" height="15.988"/>
<path fill="#FFFFFF" d="M33.326,17.268H22.918c0.221,2.282,1.684,3.896,4.12,3.896c1.574,0,3.234-0.664,3.719-2.259h2.302
	c-0.444,2.968-3.455,3.774-5.911,3.774c-4.064,0-6.387-2.236-6.387-5.759c0-4.065,2.436-6.201,6.465-6.201
	c3.942,0,6.111,2.125,6.111,5.89v0.666l0,0L33.326,17.268z M31.023,15.756c-0.043-2.569-1.948-3.542-3.853-3.542
	c-2.235,0-3.829,1.086-4.163,3.542H31.023z"/>
<polygon fill="#FFFFFF" points="36.162,6.262 38.331,6.262 38.331,15.695 44.265,11.134 47.366,11.134 41.188,15.938 48.428,22.25
	45.197,22.25 38.331,16.096 38.331,22.25 36.162,22.25 "/>
<path fill="#FFFFFF" d="M51.817,9.096l2.168-0.909v2.944h3.278v1.507H54v6.387c0,1.194,0.331,1.838,1.684,1.838
	c0.556-0.01,1.11-0.055,1.661-0.135v1.508c-0.69,0.087-1.386,0.132-2.082,0.134c-2.192,0-3.432-0.709-3.432-3.193V12.64h-2.903
	v-1.506h2.903V9.102L51.817,9.096z"/>
<path fill="#FFFFFF" d="M59.702,13.656c0-0.841-0.043-1.637-0.09-2.522h2.032c0.044,0.665,0.09,1.452,0.09,2.215h0.043
	c0.996-1.794,1.971-2.369,4.451-2.369h0.731v1.948c-0.336-0.103-0.688-0.146-1.039-0.134c-2.613,0-4.065,1.838-4.065,4.063v5.381
	h-2.168v-8.583l0,0L59.702,13.656L59.702,13.656z"/>
<path fill="#FFFFFF" d="M74.981,22.672c-4.517,0-6.967-2.17-6.967-5.979c0-3.609,2.302-5.979,6.967-5.979
	c4.518,0,6.954,2.168,6.954,5.979C81.935,20.502,79.499,22.672,74.981,22.672 M70.336,16.693c0,2.521,1.617,4.475,4.645,4.475
	s4.646-1.949,4.646-4.475c0-2.526-1.617-4.476-4.646-4.476C71.953,12.219,70.336,14.168,70.336,16.693"/>
<polygon fill="#FFFFFF" points="86.141,6.262 99.092,6.262 99.092,9.673 90.789,9.673 90.789,12.995 98.628,12.995 98.628,16.271
	90.789,16.271 90.789,22.25 86.141,22.25 "/>
<path fill="#FFFFFF" d="M108.238,10.712c6.265,0,8.059,3.345,8.059,5.978c0,2.636-1.794,5.979-8.059,5.979
	c-6.266,0-8.061-3.344-8.061-5.979C100.178,14.059,101.973,10.712,108.238,10.712 M108.238,20.232c1.994,0,3.545-1.266,3.545-3.543
	c0-2.278-1.551-3.547-3.545-3.547c-1.996,0-3.543,1.263-3.543,3.542c0,2.279,1.551,3.543,3.543,3.543"/>
<path fill="#FFFFFF" d="M119.067,13.416c0-0.708-0.022-1.527-0.092-2.282h4.121c0.065,0.798,0.086,1.594,0.086,2.393h0.043
	c1.041-2.125,2.192-2.547,4.981-2.547v3.631c-0.373-0.06-0.751-0.088-1.129-0.09c-2.281,0-3.774,1.283-3.774,3.521v4.207h-4.238
	L119.067,13.416L119.067,13.416z"/>
<path fill="#FFFFFF" d="M130.562,13.416c0-0.708-0.022-1.527-0.09-2.282h4.115c0.044,0.665,0.09,1.33,0.09,1.991h0.033
	c1.063-1.573,2.479-2.413,4.584-2.413c1.659,0,3.229,0.752,3.984,2.503c0.934-1.483,2.459-2.503,4.693-2.503
	c2.369,0,5.25,0.871,5.25,5.226v6.313h-4.24v-5.824c0-1.659-0.643-2.877-2.369-2.877c-1.416,0-2.59,1.161-2.59,2.79v5.911h-4.254
	v-5.688c0-1.662-0.373-3.013-2.302-3.013c-1.483,0-2.655,1.351-2.655,3.39v5.313h-4.254v-8.834l0,0L130.562,13.416L130.562,13.416z"
	/>
<path fill="#FFFFFF" d="M169.24,13.973v-0.276l-0.457-1.344l-0.515-0.79l-0.227-0.099l-0.125-0.319l-0.078-0.052
	c-0.225-0.165-0.412-0.375-0.55-0.618l-0.14-0.221l-0.127,0.061l-0.035-0.063l-0.078-0.163h-0.479
	c-0.158-0.107-0.33-0.195-0.509-0.261V9.42l-0.795,0.337c-0.177,0.005-0.349-0.015-0.519-0.058
	c-0.104-0.046-0.215-0.075-0.328-0.087c-0.149,0.006-0.293,0.075-0.393,0.189h-0.291l-0.064,0.2
	c-0.09,0.451-0.493,0.769-0.952,0.749h-0.412l0.114,0.38c0.043,0.136,0.064,0.278,0.064,0.421c0,0.099,0,0.148-0.181,0.163
	l-0.322,0.026l0.076,0.4c-0.104,0.064-0.188,0.156-0.248,0.264l-0.374,0.639l0.105,0.154c0.025,0.03,0.043,0.065,0.054,0.102
	c-0.076,0.078-0.166,0.14-0.269,0.183l-0.064,0.035l-0.044,0.061c-0.095,0.146-0.142,0.317-0.138,0.49v0.025l0.078,0.452
	c-0.016,0.154-0.08,0.298-0.187,0.41l-0.065,0.078v0.352l-0.1,0.485l0.091,0.215c-0.008,0.066-0.028,0.133-0.062,0.189h-0.157
	l-0.084,0.152c-0.134,0.229-0.205,0.488-0.209,0.754l0,0c-0.187,0.149-0.292,0.375-0.291,0.612c0.005,0.142,0.019,0.28,0.041,0.418
	c0.021,0.153,0.028,0.238,0.03,0.291l-0.192,0.442l0.151,0.756l-0.18,0.352l0.4,1.049l-0.134,0.437l0.112,0.121
	c0.269,0.278,0.494,0.598,0.67,0.94l0.069,0.146l1.107,0.119l0.616,0.256l0.063-0.125l0.345,0.209l0.314-0.481
	c0.22-0.072,0.423-0.187,0.602-0.332c0.051,0.012,0.104,0.021,0.153,0.021c0.2,0.001,0.396-0.076,0.539-0.216
	c0.581-0.065,0.808-0.317,0.899-0.579c0.051-0.021,0.123-0.05,0.231-0.084c0.197-0.044,0.375-0.146,0.515-0.29l0.291-0.375
	l0.446-0.168l0.046-0.385l0.362-0.164l0.248-0.525l0.325-0.2l0.104-0.34l0.204-0.078l0.043-0.131c0.06-0.21,0.136-0.414,0.226-0.61
	l0.188-0.271l0.263-0.67v-0.291c0.101-0.145,0.17-0.307,0.209-0.479l0.114-0.74l-0.096-0.224l0.188-0.563L169.24,13.973z
	 M167.41,12.6L167.41,12.6z M168.063,15.613l-0.258,0.313l0.252,0.1l-0.023,0.063c-0.066,0.155-0.104,0.321-0.107,0.49
	c0.004,0.088,0.021,0.174,0.053,0.256c0.021,0.065,0.022,0.099,0.025,0.099c-0.014,0.032-0.031,0.064-0.055,0.094l-0.328,0.472
	h0.125l-0.049,0.067v0.022l-0.36,0.157l0.081,0.39c-0.086,0.198-0.154,0.404-0.206,0.615l-0.29,0.147
	c-0.134,0.08-0.249,0.188-0.34,0.315l-0.163,0.229l-0.502,0.438l-0.084,0.177h-0.271l-0.238-0.015l-0.047,0.237
	c-0.061,0.087-0.137,0.16-0.228,0.218l-0.059,0.047l-0.103,0.229l-0.272,0.026l-0.054,0.14l-0.508-0.14v0.356
	c-0.039,0.011-0.08,0.016-0.121,0.015l-0.5-0.053l-0.108,0.256l-0.138,0.035l-0.694-0.035l-0.289,0.119l-0.162-0.054l-0.063,0.019
	v-0.022l-0.084-0.037c-0.127-0.053-0.248-0.115-0.36-0.19l-0.369-0.494l-0.019-0.551l0.115-0.424l0.019-0.791l-0.099-0.246
	l0.361-0.871l-0.049-0.378l0.076-0.157V17.07l0.248-0.396v-0.227c0.162-0.141,0.26-0.342,0.268-0.557
	c-0.002-0.104,0.006-0.211,0.023-0.314l0.486-0.268l-0.062-0.223c-0.031-0.141-0.045-0.285-0.038-0.429
	c-0.005-0.065-0.005-0.13,0-0.194l0.325-0.225l0.146-0.804l0.29-0.194l0.084-0.291l0.726-0.43l0.775-0.029l-0.041-1.223
	c-0.008-0.018-0.008-0.038,0-0.055c0.141-0.084,0.307-0.117,0.467-0.093l0.271,0.058l0.719,0.305l0.231,0.227l0.147,0.093
	l-0.024,0.041l0.259,0.499l0.273,0.029c-0.03,0.068-0.051,0.143-0.055,0.218v0.035c-0.001,0.145,0.077,0.278,0.203,0.349
	c0.033,0.216,0.174,0.402,0.372,0.493l0.177,0.291l-0.059,0.599l0.156,0.377l-0.115,0.17L167.942,15v0.152
	c0.019,0.123,0.078,0.233,0.173,0.313v0.016c-0.015,0.047-0.031,0.093-0.056,0.135L168.063,15.613z"/>
<path fill="#FFFFFF" d="M188.196,16.939h-0.579l-0.519,0.254l-0.043,0.063c-0.25,0.374-0.424,0.63-0.537,0.78l-0.162,0.332
	c-0.051,0.077-0.114,0.146-0.188,0.198c-0.111,0.089-0.214,0.187-0.309,0.291c-0.063,0.068-0.114,0.147-0.152,0.234l-0.029,0.066
	c-0.047,0.041-0.091,0.084-0.135,0.134c-0.482,0.165-0.605,0.269-0.664,0.401l-0.021,0.058v0.037
	c-0.045,0.011-0.094,0.021-0.141,0.022h-0.146l-0.076,0.131l-0.021,0.037l-0.106-0.063L184.218,20
	c-0.083,0.047-0.178,0.07-0.271,0.068c-0.061-0.002-0.117-0.02-0.17-0.045v-0.139L183.63,19.8l0.041-0.142l-0.275-0.313v-0.471
	l-0.146-0.1c-0.033-0.201-0.1-0.396-0.191-0.58l-0.109-0.209l-0.043-0.871l-0.289-0.975l-0.07-0.975l-0.184-0.971V13.38
	l-0.188-0.845l0.168-0.622l-0.43-0.261l-0.054-0.581l-0.162-0.066l-0.038-0.191l-0.113-0.058c-0.116-0.083-0.215-0.19-0.289-0.313
	l-0.084-0.119h-0.418l-0.178,0.291c-0.285,0.08-0.539,0.253-0.718,0.49c-0.121,0.131-0.209,0.289-0.256,0.461l0,0
	c-0.354,0-0.627,0.224-0.813,0.668h-0.035c-0.105-0.006-0.213,0.034-0.29,0.11c-0.083,0.086-0.128,0.203-0.122,0.322
	c0.006,0.074,0.024,0.147,0.057,0.215c-0.068,0.037-0.143,0.069-0.217,0.096l-0.186,0.069v0.543
	c-0.063,0.197-0.203,0.36-0.391,0.449c-0.16,0.045-0.269,0.19-0.265,0.356c0.003,0.086,0.017,0.172,0.038,0.256l-0.305,0.652
	l-0.363,0.43c-0.123,0.132-0.215,0.285-0.271,0.455c-0.151,0.056-0.284,0.156-0.377,0.291c-0.021,0.028-0.041,0.056-0.065,0.078
	h-0.271v0.596c-0.104,0.168-0.231,0.322-0.375,0.459l-0.043,0.044l-0.022,0.059c-0.028,0.076-0.063,0.15-0.103,0.222l-0.062,0.043
	c-0.132,0.101-0.226,0.238-0.269,0.396c-0.248,0.059-0.438,0.264-0.474,0.516c-0.05,0.057-0.114,0.096-0.188,0.108l-0.156,0.047
	l-0.143,0.56h-0.113l-0.076,0.035V18.9c0.021-0.344,0.096-0.684,0.22-1.002l0.03-0.104l-0.143-0.35
	c0.03-0.197,0.08-0.395,0.151-0.58l0.074-0.113l-0.175-0.598l0.238-0.369v-0.438l-0.07-0.701l0.197-0.613l-0.121-1.181l0.1-0.607
	l-0.243-0.395c0-0.261,0-0.453-0.019-0.581c-0.002-0.149-0.049-0.294-0.135-0.415c-0.063-0.076-0.143-0.134-0.69-0.291l-0.229-0.069
	l-0.352,0.659l0.082,0.778l-0.092,0.517l0.053,0.322l-0.133,0.926l0.139,0.271l-0.031,0.441l0.103,0.195l-0.164,1.016l0.052,0.445
	c-0.025,0.045-0.064,0.084-0.107,0.115l-0.203,0.157l0.135,0.224c0.045,0.064,0.086,0.137,0.119,0.209v0.113
	c0.021,0.352-0.039,0.7-0.17,1.025l-0.055,0.102l0.104,0.385l-0.199,0.377l0.233,0.684l-0.024,0.365l0.072,0.134l-0.078,0.075
	l0.024,0.384l-0.254,0.405l0.188,0.425l0.103,0.046c0.098,0.089,0.154,0.213,0.162,0.344c0.038,0.156,0.151,0.633,0.553,0.69h0.055
	h0.056c0.319-0.038,0.616-0.185,0.843-0.413c0.106-0.141,0.174-0.309,0.193-0.484c0.18-0.148,0.303-0.354,0.35-0.58
	c0.211-0.152,0.41-0.322,0.594-0.509c0.199-0.216,0.373-0.455,0.519-0.711l0.021-0.021c0.24-0.084,0.414-0.293,0.459-0.543
	c0.031-0.123,0.078-0.242,0.137-0.356c0.266-0.115,0.439-0.37,0.452-0.659l0.396-0.468h0.291v-0.29l0.145-0.018l0.289-0.793
	l-0.063-0.187c0.182-0.166,0.34-0.354,0.477-0.558c0.092-0.15,0.203-0.379,0.34-0.672l0.379-0.674l0.996-1.161l0.289-0.38
	l0.291-0.291c0.06,0.162,0.135,0.318,0.227,0.465c-0.002,0.038-0.002,0.075,0,0.113c0.004,0.118,0.021,0.236,0.053,0.351v0.075
	c0.068,0.852,0.194,1.701,0.375,2.535v0.758l0.289,0.451l-0.046,0.729l0.222,0.555l0.043,0.168l-0.09,0.054v0.399l0.188,0.375v0.149
	c0.041,0.344,0.201,0.66,0.453,0.896c0.018,0.146,0.079,0.283,0.185,0.39l0.084,0.088h0.119l0.29,0.387l0.24,0.029l0.108,0.146
	l0.338-0.041l0.228,0.032l0.679-0.117c0.098-0.021,0.188-0.058,0.272-0.104l0.291-0.188l0.479-0.097l0.163-0.315
	c0.142-0.03,0.265-0.116,0.341-0.239c0.082-0.037,0.151-0.1,0.197-0.179c0.309-0.098,0.533-0.362,0.58-0.682l0.324-0.087v-0.221
	c0.056-0.188,0.162-0.356,0.309-0.49c0.34-0.399,0.43-0.58,0.445-0.729c0.223-0.127,0.339-0.383,0.289-0.635L188.196,16.939z"/>
<path fill="#FFFFFF" d="M195.938,18.305l-0.176-0.121l-0.169,0.127l-0.052,0.037l-0.063-0.087l-0.217,0.097
	c-0.137,0.056-0.248,0.158-0.312,0.289c-0.14,0.096-0.269,0.201-0.388,0.316l-0.205,0.191l-0.271,0.078l-0.262,0.191l-0.361,0.104
	l-0.022,0.06l-0.133-0.021l-0.17,0.184c-0.205,0.027-0.394,0.131-0.525,0.291c-0.127,0.029-0.248,0.09-0.352,0.174l-0.289,0.238
	h-0.078c-0.233,0.021-0.461,0.096-0.662,0.215l-0.101-0.041l-0.227-0.717l0.062-0.245l-0.125-0.313l0.073-0.425l-0.104-0.271
	c0.059-0.105,0.092-0.221,0.103-0.34c0.007-0.197-0.022-0.396-0.086-0.58l0.108-0.082l-0.181-0.346l0.104-0.719l0.152-0.639
	l-0.109-0.219l0.058-0.041l0.106-1.252l-0.125-0.557c0.108-0.289,0.188-0.589,0.231-0.895l0.019-0.409l0.15-0.935l-0.046-0.291
	c0.062-0.129,0.099-0.27,0.104-0.412c-0.008-0.116-0.037-0.229-0.088-0.334l0.269-0.723l-0.289-0.087h-0.026l0,0
	c-0.004-0.019-0.004-0.037,0-0.055c0.015-0.328,0.114-0.646,0.291-0.923l0.096-0.163l-0.199-0.29l0.227-0.68l-0.031-0.093
	c-0.088-0.36-0.129-0.73-0.125-1.1v-0.09c0.082-0.162,0.127-0.34,0.131-0.522v-0.08l-0.037-0.072
	c-0.037-0.063-0.059-0.136-0.063-0.209l0.311-0.444l-0.436-0.354l-0.14-0.473l-0.084-0.059c-0.074-0.061-0.165-0.099-0.263-0.107
	l0,0c-0.123,0.008-0.241,0.045-0.348,0.107c-0.106,0.05-0.207,0.09-0.291,0.125l-0.168,0.061l-0.178,1.51l0.079,0.305l-0.084,0.798
	c-0.046,0.382-0.005,0.769,0.12,1.132l-0.092,1.321v1.318l-0.084,0.215v0.987c0.004,0.199-0.061,0.393-0.182,0.551l-0.091,0.113
	l0.156,0.61l-0.207,0.485l0.057,0.5l-0.075,0.871l-0.404,0.197l0.231,0.291c0.085,0.088,0.138,0.201,0.148,0.32
	c0,0.021,0,0.176-0.123,1.268v0.096l0.051,0.084c0.076,0.104,0.127,0.226,0.147,0.354c-0.008,0.021-0.021,0.044-0.034,0.063
	l-0.044,0.063l-0.038,0.437l0.021,0.696l-0.041,0.914l0.131,0.174l-0.021,0.248l0.09,0.789l0.053,0.065
	c0.158,0.201,0.284,0.429,0.371,0.668l0.026,0.07l0.289,0.243l0.228,0.345h0.395l0.316-0.119c0.082-0.021,0.256-0.09,0.516-0.198
	c0.148-0.076,0.313-0.123,0.479-0.138h0.29l0.065-0.188l0.416-0.119l0.054-0.13c0.039-0.103,0.144-0.161,0.249-0.144h0.104
	l0.078-0.068c0.2-0.178,0.327-0.29,0.391-0.354c0.07-0.041,0.15-0.067,0.23-0.08l0.069-0.02l0.055-0.046
	c0.33-0.267,0.64-0.558,0.921-0.871c0.293-0.098,0.538-0.299,0.69-0.565c0.206-0.131,0.317-0.369,0.291-0.611
	C196.247,18.607,196.128,18.409,195.938,18.305z"/>
<path fill="#FFFFFF" d="M204.793,17.988l-0.081-0.094l-0.918-0.057l-0.078,0.456l-0.563,0.29l-0.026,0.066h-0.289l0.071,0.332
	h-0.127l-0.178,0.275c-0.154,0.032-0.295,0.111-0.4,0.227c-0.243,0.074-0.471,0.195-0.668,0.354l-0.291,0.079l-0.034-0.055
	l-0.39,0.383c-0.174,0.041-0.34,0.113-0.486,0.215l-0.256,0.119l-0.29-0.128l-0.229,0.063v-0.031l-0.037-0.084
	c-0.146-0.355-0.211-0.736-0.196-1.118l0.063-0.679l-0.045-0.334l0.203-0.436V17.12l0.15-0.961l-0.016-0.119l0.344-1.161
	l-0.08-0.324l0.049-0.199c0.186-0.182,0.289-0.428,0.291-0.687V13.6l-0.219-0.433l0.291-1.632l0.433-0.542l-0.487-0.227
	c-0.009-0.143-0.031-0.284-0.063-0.424c-0.07-0.186-0.263-0.296-0.459-0.264c-0.175-0.008-0.339,0.083-0.425,0.235
	c-0.092-0.061-0.196-0.097-0.308-0.104c-0.129-0.002-0.253,0.044-0.349,0.131c-0.094,0.097-0.146,0.228-0.141,0.363
	c0.01,0.145,0.045,0.288,0.104,0.421c-0.062,0.102-0.09,0.219-0.086,0.336c0.012,0.121,0.037,0.24,0.075,0.354
	c0.029,0.11,0.05,0.209,0.066,0.291l-0.143,0.162v0.581l-0.135,0.438l0.051,0.102c0.076,0.16,0.127,0.33,0.146,0.505l-0.074,0.046
	l-0.022,0.125c-0.033,0.197-0.079,0.393-0.14,0.582c-0.065,0.19-0.098,0.394-0.098,0.596l0.063,1.289l-0.153,0.113l-0.321,2.486
	l0.084,0.311l0.041,1.479l0.442,1.034l0.933,0.708l0.346-0.267h0.513l0.138-0.197l0.291-0.057c0.225-0.035,0.44-0.115,0.639-0.234
	l0.056-0.037l0.034-0.055c0,0,0.045-0.064,0.252-0.314c0.229-0.029,0.438-0.133,0.604-0.291h0.194l0.087-0.104
	c0.119-0.153,0.25-0.297,0.395-0.431l0.049-0.021l0.291-0.313l0.289-0.096l0.065-0.035c0.226-0.18,0.386-0.425,0.466-0.699
	l0.389-0.105l0.135-0.4l0.291-0.199l0.102-0.479l-0.041-0.088C204.925,18.148,204.862,18.063,204.793,17.988z"/>
<path fill="#FFFFFF" d="M198.194,7.963c0.162-0.175,0.341-0.333,0.535-0.47l0.396-0.165l0.34-0.491l0.68-0.2l0.244-0.375
	l0.623-0.732h0.061c0.176-0.015,0.336-0.11,0.436-0.258l0.324-0.354v-0.13c0.206-0.122,0.369-0.303,0.468-0.52l0.034-0.087
	l-0.02-0.09c-0.127-0.484-0.51-0.861-0.992-0.984L201.004,3l-0.062,0.328c-0.032,0.156-0.123,0.295-0.25,0.392l-0.09,0.076
	l-0.019,0.151h-0.119l-0.049,0.143h-0.069l-0.24,0.423l-0.211,0.079l-0.131,0.206l-0.313,0.079v0.331h-0.596l0.178,0.41l0,0
	l-0.021,0.064l-0.271,0.157v0.107h-0.034c-0.229,0.092-0.382,0.345-0.499,0.833l-0.702,0.305l0.045,0.688l0.479,0.325L198.194,7.963
	z"/>
<path fill="#FFFFFF" d="M222.867,17.277h-0.563l-0.521,0.252l-0.043,0.064c-0.246,0.371-0.42,0.629-0.533,0.781l-0.182,0.342
	c-0.049,0.079-0.113,0.146-0.188,0.199c-0.11,0.088-0.214,0.186-0.31,0.29c-0.063,0.067-0.114,0.149-0.151,0.235l-0.026,0.066
	c-0.047,0.041-0.092,0.086-0.135,0.135c-0.484,0.164-0.605,0.268-0.665,0.399l-0.022,0.056v0.01
	c-0.045,0.012-0.092,0.02-0.139,0.022h-0.148l-0.074,0.13l-0.021,0.038l-0.11-0.063l-0.146,0.082
	c-0.084,0.048-0.181,0.07-0.275,0.068c-0.061-0.003-0.116-0.019-0.17-0.047v-0.137l-0.146-0.084l0.038-0.143l-0.275-0.312v-0.472
	l-0.146-0.1c-0.034-0.201-0.099-0.396-0.19-0.58l-0.113-0.211l-0.043-0.871l-0.291-0.977l-0.068-0.973l-0.184-0.972v-0.815
	l-0.151-0.851l0.166-0.622l-0.455-0.25l-0.053-0.581l-0.164-0.067l-0.056-0.18l-0.112-0.058c-0.116-0.083-0.218-0.19-0.291-0.313
	l-0.084-0.119h-0.418l-0.177,0.291c-0.285,0.08-0.535,0.251-0.715,0.488c-0.121,0.13-0.209,0.289-0.256,0.462l0,0
	c-0.354,0-0.628,0.224-0.813,0.667h-0.035c-0.107-0.005-0.213,0.035-0.289,0.11c-0.082,0.084-0.127,0.199-0.123,0.316
	c0.006,0.077,0.023,0.151,0.055,0.221c-0.068,0.038-0.141,0.069-0.214,0.096l-0.187,0.069v0.543
	c-0.063,0.198-0.201,0.359-0.391,0.45c-0.158,0.043-0.269,0.188-0.264,0.354c0.002,0.088,0.016,0.174,0.036,0.26l-0.308,0.653
	l-0.363,0.429c-0.122,0.131-0.215,0.287-0.271,0.457c-0.151,0.054-0.284,0.153-0.377,0.289c-0.021,0.027-0.043,0.056-0.065,0.08
	h-0.272V17.5c-0.104,0.168-0.229,0.32-0.371,0.459l-0.043,0.043l-0.022,0.059c-0.028,0.076-0.063,0.151-0.104,0.225l-0.063,0.043
	c-0.131,0.1-0.226,0.238-0.269,0.396c-0.248,0.059-0.437,0.26-0.474,0.512c-0.047,0.057-0.113,0.097-0.188,0.109l-0.158,0.047
	l-0.144,0.56h-0.096l-0.08,0.038v-0.746c0.021-0.346,0.097-0.684,0.22-1.002l0.03-0.1l-0.144-0.35
	c0.031-0.198,0.082-0.393,0.151-0.58l0.079-0.113l-0.176-0.599l0.242-0.369v-0.43l-0.07-0.699l0.197-0.614l-0.104-1.18l0.102-0.607
	l-0.244-0.395c0-0.264,0-0.456-0.02-0.581c-0.002-0.15-0.049-0.296-0.137-0.418c-0.063-0.073-0.145-0.128-0.688-0.291l-0.229-0.069
	l-0.353,0.659l0.08,0.778l-0.09,0.517l0.053,0.322l-0.125,0.94l0.14,0.271l-0.03,0.44l0.104,0.193l-0.166,1.018l0.053,0.447
	c-0.029,0.045-0.066,0.084-0.11,0.114l-0.202,0.162l0.137,0.224c0.043,0.065,0.082,0.137,0.115,0.207v0.116
	c0.021,0.351-0.039,0.699-0.172,1.024l-0.053,0.103l0.105,0.384l-0.201,0.377l0.234,0.683l-0.033,0.368l0.07,0.135l-0.078,0.076
	l0.025,0.383l-0.255,0.406l0.19,0.424l0.104,0.046c0.095,0.09,0.15,0.212,0.158,0.344c0.103,0.421,0.289,0.652,0.553,0.69h0.055
	h0.057c0.317-0.038,0.613-0.184,0.842-0.412c0.105-0.141,0.174-0.309,0.193-0.485c0.18-0.147,0.303-0.354,0.35-0.579
	c0.211-0.152,0.41-0.322,0.596-0.509c0.197-0.217,0.371-0.456,0.516-0.711l0.021-0.021c0.238-0.086,0.415-0.293,0.458-0.543
	c0.034-0.123,0.08-0.244,0.138-0.356c0.266-0.115,0.439-0.371,0.452-0.66l0.396-0.467h0.307v-0.291l0.143-0.019l0.291-0.795
	l-0.06-0.187c0.181-0.166,0.34-0.354,0.478-0.56c0.092-0.149,0.203-0.375,0.34-0.67l0.379-0.674l0.994-1.162l0.291-0.38l0.291-0.291
	c0.059,0.162,0.135,0.318,0.227,0.465c-0.004,0.037-0.004,0.073,0,0.11c0.003,0.121,0.021,0.24,0.052,0.357v0.072
	c0.069,0.853,0.194,1.699,0.375,2.535v0.759l0.291,0.446l-0.091,0.69l0.221,0.555l0.043,0.168l-0.09,0.053v0.4l0.188,0.374v0.147
	c0.041,0.344,0.201,0.659,0.453,0.896c0.019,0.146,0.08,0.283,0.186,0.39l0.084,0.088h0.118l0.289,0.385l0.243,0.029l0.107,0.146
	l0.338-0.041l0.225,0.029l0.682-0.115c0.096-0.021,0.188-0.059,0.271-0.108l0.291-0.187l0.48-0.096l0.163-0.316
	c0.142-0.03,0.265-0.117,0.34-0.24c0.084-0.037,0.153-0.102,0.198-0.18c0.307-0.1,0.531-0.363,0.58-0.684l0.324-0.089V19.75
	c0.057-0.188,0.162-0.357,0.309-0.49c0.34-0.4,0.43-0.58,0.443-0.729c0.225-0.127,0.342-0.383,0.291-0.635L222.867,17.277z"/>
<path fill="#FFFFFF" d="M231.858,19.643l-0.084-0.133h-0.155c-0.188-0.004-0.369,0.059-0.517,0.174l-0.08,0.064l-0.021,0.1
	c-0.104,0.459-0.339,0.551-0.534,0.58l-0.153,0.023l-0.09,0.186c-0.136,0.055-0.246,0.158-0.309,0.291l-0.033,0.062v0.018
	c-0.174,0.076-0.354,0.144-0.533,0.197l-0.158,0.053v0.066h-0.178l-0.263,0.383c-0.188,0.092-0.367,0.199-0.536,0.319l-0.604,0.065
	l-0.99-0.062l-0.48-0.079v-0.134l-0.209-0.063c-0.227-0.066-0.436-0.184-0.615-0.337c-0.064-0.048-0.121-0.106-0.166-0.176
	l0.082-0.222l-0.215-0.104c-0.043-0.091-0.067-0.189-0.078-0.29c-0.057-0.362-0.063-0.455-0.063-0.455l0.031-0.405l-0.016-0.199
	l0.159-0.142l-0.134-0.973l0.066-0.035l0.039-0.097c0.082-0.231,0.133-0.473,0.154-0.717l0.206-0.248v-0.104
	c-0.007-0.263,0.083-0.521,0.253-0.724c0.264,0.037,0.319,0.063,0.319,0.059l0.362,0.221l0.619-0.291h0.383l0.58-0.394
	c0.055,0.019,0.11,0.024,0.17,0.026c0.164,0,0.316-0.09,0.398-0.232c0.578-0.311,1.123-0.68,1.625-1.104l0.102-0.078l0.027-0.438
	l0.516-0.624l0.355-0.827l0.194-0.174l-0.086-0.871l0.073-0.264v-0.07c0.021-0.35-0.061-0.698-0.234-1.001l0.189-0.081l-0.424-0.291
	c-0.033-0.027-0.055-0.067-0.058-0.11l-0.046-0.232h-0.317c-0.149,0.001-0.274-0.11-0.29-0.258l-0.063-0.2h-0.271l-0.163-0.134
	l-0.234,0.047c-0.094-0.088-0.219-0.137-0.35-0.14c-0.207,0.031-0.406,0.089-0.601,0.175l-0.104,0.034l-0.055,0.096
	c-0.041,0.073-0.072,0.122-0.097,0.16l-0.183-0.099l-0.151,0.186c-0.151,0.234-0.366,0.422-0.617,0.543l-0.069,0.021l-0.053,0.052
	c-0.122,0.114-0.227,0.247-0.311,0.392l-0.155,0.064l-0.106,0.208h-0.248v0.291c0.008,0.13-0.052,0.255-0.154,0.334l-0.037,0.029
	l-0.025,0.038c-0.266,0.394-0.479,0.82-0.637,1.269c-0.154,0.116-0.252,0.294-0.268,0.488c-0.07,0.018-0.145,0.03-0.219,0.038
	c-0.058-0.021-0.104-0.063-0.131-0.119l-0.345-0.528l-0.179,0.604c-0.063,0.217-0.097,0.441-0.099,0.667v0.004l0.124,0.803
	c-0.043,0.093-0.091,0.18-0.145,0.264l-0.113,0.184l0.188,0.213l-0.14,0.111l0.019,0.156c0.028,0.254,0.06,0.463,0.088,0.628
	c-0.063,0.125-0.114,0.258-0.147,0.396c-0.015,0.061-0.049,0.11-0.096,0.147l-0.128,0.104l0.066,0.472l-0.138,0.444l-0.019,0.646
	l-0.106,0.506l-0.082,1.024l0.306,1.345v0.315l0.096,0.086c0.089,0.067,0.164,0.151,0.222,0.248l0.146,0.39l0.396,0.222v0.262
	l0.05,0.074c0.271,0.352,0.692,0.557,1.139,0.559l0.172,0.146h0.094c0.104,0.007,0.207,0.007,0.311,0
	c0.18,0.093,0.379,0.138,0.58,0.132c0.146-0.003,0.292-0.031,0.428-0.091l0.263,0.206l0.183-0.21
	c0.067-0.095,0.174-0.155,0.291-0.168l0.357,0.056l0.102-0.158h0.368l0.235-0.271l0.291,0.038l0.195-0.418l0.639-0.421l0.427-0.063
	l0.306-0.582l0.231-0.029l0.062-0.168c0.088-0.241,0.209-0.471,0.36-0.68c0.166-0.175,0.274-0.396,0.313-0.634
	C232.085,20.059,232.001,19.832,231.858,19.643z M226.653,13.413c0.014-0.066,0.031-0.132,0.059-0.194l0,0l0.25-0.212l0.418-0.775
	l0.188-0.221c0.097-0.096,0.175-0.21,0.229-0.333l0.044-0.122c0-0.035,0.021-0.069,0.035-0.104l0.229,0.116l0.158-0.363
	c0.17-0.076,0.354-0.123,0.539-0.137h0.209l0.065-0.198v-0.031l0.075,0.026l0.089,0.015c0.098-0.002,0.194-0.016,0.288-0.041
	l0.348,0.122c0.066,0.193,0.109,0.394,0.127,0.598c0.002,0.099-0.013,0.196-0.041,0.291c-0.107,0.236-0.234,0.462-0.381,0.679
	l-0.104,0.346c-0.054,0.069-0.115,0.134-0.183,0.191l-0.214,0.023v0.27c-0.115,0.102-0.262,0.162-0.413,0.171h-0.188l-0.14,0.29
	h-0.168l-0.228,0.368l-0.313,0.052l-0.069,0.093c-0.013,0.018-0.022,0.029-0.035,0.047c-0.037-0.01-0.073-0.021-0.108-0.035
	l-0.244-0.092l-0.144,0.289c-0.246,0.063-0.481,0.161-0.701,0.291l-0.206-0.063l-0.078-0.196l0,0
	C226.524,13.811,226.625,13.552,226.653,13.413z"/>
</svg>
