<?xml version="1.0" encoding="UTF-8" standalone="no"?>
<!DOCTYPE svg PUBLIC "-//W3C//DTD SVG 1.1//EN" "http://www.w3.org/Graphics/SVG/1.1/DTD/svg11.dtd">
<svg width="100%" height="100%" viewBox="0 0 183 24" version="1.1" xmlns="http://www.w3.org/2000/svg" xmlns:xlink="http://www.w3.org/1999/xlink" xml:space="preserve" xmlns:serif="http://www.serif.com/" style="fill-rule:evenodd;clip-rule:evenodd;stroke-linejoin:round;stroke-miterlimit:2;">
    <g transform="matrix(1,0,0,1,0,-0.120001)">
        <path d="M12.043,13.004L12.043,0.12L21.359,0.12L21.359,1.64L13.748,1.64L13.748,5.586L20.876,5.586L20.876,7.098L13.748,7.098L13.748,11.484L21.658,11.484L21.658,13.004L12.043,13.004Z" style="fill:white;fill-rule:nonzero;"/>
        <rect x="25.306" y="0.12" width="1.582" height="12.884" style="fill:white;fill-rule:nonzero;"/>
        <path d="M37.26,9.999L38.895,10.201C38.637,11.156 38.16,11.897 37.462,12.424C36.765,12.952 35.874,13.215 34.79,13.215C33.425,13.215 32.343,12.795 31.543,11.954C30.743,11.113 30.343,9.934 30.343,8.417C30.343,6.846 30.748,5.627 31.556,4.76C32.365,3.893 33.414,3.459 34.703,3.459C35.951,3.459 36.97,3.884 37.761,4.734C38.552,5.584 38.948,6.779 38.948,8.32C38.948,8.414 38.945,8.554 38.939,8.742L31.978,8.742C32.037,9.767 32.327,10.552 32.848,11.097C33.37,11.642 34.02,11.915 34.799,11.915C35.379,11.915 35.874,11.762 36.285,11.458C36.695,11.153 37.02,10.667 37.26,9.999ZM32.066,7.441L37.278,7.441C37.207,6.656 37.008,6.067 36.68,5.674C36.176,5.065 35.523,4.76 34.72,4.76C33.994,4.76 33.383,5.003 32.888,5.49C32.393,5.976 32.119,6.626 32.066,7.441Z" style="fill:white;fill-rule:nonzero;"/>
        <path d="M42.42,13.004L42.42,0.12L44.002,0.12L44.002,7.467L47.746,3.67L49.794,3.67L46.226,7.133L50.154,13.004L48.203,13.004L45.118,8.232L44.002,9.304L44.002,13.004L42.42,13.004Z" style="fill:white;fill-rule:nonzero;"/>
        <path d="M56.395,11.589L56.624,12.987C56.179,13.081 55.78,13.127 55.429,13.127C54.854,13.127 54.409,13.037 54.093,12.855C53.776,12.673 53.554,12.435 53.425,12.139C53.296,11.843 53.231,11.22 53.231,10.271L53.231,4.901L52.071,4.901L52.071,3.67L53.231,3.67L53.231,1.359L54.805,0.41L54.805,3.67L56.395,3.67L56.395,4.901L54.805,4.901L54.805,10.359C54.805,10.81 54.832,11.1 54.888,11.229C54.944,11.358 55.035,11.46 55.161,11.537C55.287,11.613 55.467,11.651 55.701,11.651C55.877,11.651 56.108,11.63 56.395,11.589Z" style="fill:white;fill-rule:nonzero;"/>
        <path d="M59.455,13.004L59.455,3.67L60.879,3.67L60.879,5.085C61.242,4.423 61.577,3.987 61.885,3.776C62.192,3.565 62.531,3.459 62.9,3.459C63.433,3.459 63.975,3.629 64.526,3.969L63.981,5.437C63.594,5.209 63.208,5.094 62.821,5.094C62.475,5.094 62.165,5.198 61.889,5.406C61.614,5.614 61.418,5.903 61.3,6.272C61.125,6.834 61.037,7.45 61.037,8.118L61.037,13.004L59.455,13.004Z" style="fill:white;fill-rule:nonzero;"/>
        <path d="M66.408,8.337C66.408,6.609 66.888,5.329 67.849,4.497C68.652,3.805 69.63,3.459 70.785,3.459C72.068,3.459 73.117,3.88 73.931,4.721C74.745,5.562 75.153,6.723 75.153,8.206C75.153,9.407 74.972,10.352 74.612,11.04C74.252,11.729 73.727,12.263 73.039,12.644C72.35,13.025 71.599,13.215 70.785,13.215C69.478,13.215 68.422,12.796 67.616,11.959C66.81,11.121 66.408,9.914 66.408,8.337ZM68.034,8.337C68.034,9.533 68.294,10.428 68.816,11.022C69.337,11.617 69.993,11.915 70.785,11.915C71.57,11.915 72.223,11.616 72.744,11.018C73.266,10.42 73.527,9.509 73.527,8.285C73.527,7.13 73.264,6.256 72.74,5.661C72.216,5.066 71.564,4.769 70.785,4.769C69.993,4.769 69.337,5.065 68.816,5.657C68.294,6.249 68.034,7.142 68.034,8.337Z" style="fill:white;fill-rule:nonzero;"/>
        <path d="M78.678,13.004L78.678,0.12L87.511,0.12L87.511,2.299L81.279,2.299L81.279,5.349L86.658,5.349L86.658,7.529L81.279,7.529L81.279,13.004L78.678,13.004Z" style="fill:white;fill-rule:nonzero;"/>
        <path d="M90.596,8.206C90.596,7.385 90.799,6.591 91.203,5.824C91.607,5.056 92.18,4.47 92.921,4.066C93.662,3.662 94.49,3.459 95.404,3.459C96.816,3.459 97.973,3.918 98.876,4.835C99.778,5.752 100.229,6.911 100.229,8.311C100.229,9.723 99.774,10.894 98.863,11.822C97.951,12.751 96.804,13.215 95.422,13.215C94.566,13.215 93.75,13.022 92.974,12.635C92.198,12.249 91.607,11.682 91.203,10.935C90.799,10.188 90.596,9.278 90.596,8.206ZM93.128,8.337C93.128,9.263 93.347,9.972 93.787,10.464C94.226,10.957 94.768,11.203 95.413,11.203C96.057,11.203 96.598,10.957 97.034,10.464C97.471,9.972 97.689,9.257 97.689,8.32C97.689,7.406 97.471,6.703 97.034,6.21C96.598,5.718 96.057,5.472 95.413,5.472C94.768,5.472 94.226,5.718 93.787,6.21C93.347,6.703 93.128,7.412 93.128,8.337Z" style="fill:white;fill-rule:nonzero;"/>
        <path d="M106.057,13.004L103.587,13.004L103.587,3.67L105.881,3.67L105.881,4.998C106.274,4.371 106.627,3.958 106.94,3.758C107.254,3.559 107.61,3.459 108.008,3.459C108.571,3.459 109.113,3.615 109.634,3.925L108.87,6.079C108.454,5.809 108.067,5.674 107.709,5.674C107.364,5.674 107.071,5.77 106.831,5.96C106.59,6.15 106.401,6.495 106.264,6.993C106.126,7.491 106.057,8.534 106.057,10.122L106.057,13.004Z" style="fill:white;fill-rule:nonzero;"/>
        <path d="M112.043,3.67L114.32,3.67L114.32,4.945C115.134,3.955 116.104,3.459 117.229,3.459C117.826,3.459 118.345,3.583 118.784,3.829C119.224,4.075 119.584,4.447 119.865,4.945C120.276,4.447 120.718,4.075 121.193,3.829C121.667,3.583 122.174,3.459 122.713,3.459C123.399,3.459 123.979,3.599 124.453,3.877C124.928,4.155 125.282,4.564 125.517,5.103C125.687,5.501 125.772,6.146 125.772,7.037L125.772,13.004L123.302,13.004L123.302,7.669C123.302,6.744 123.217,6.146 123.047,5.876C122.819,5.525 122.467,5.349 121.992,5.349C121.647,5.349 121.321,5.455 121.017,5.666C120.712,5.876 120.492,6.186 120.358,6.593C120.223,7 120.155,7.643 120.155,8.522L120.155,13.004L117.686,13.004L117.686,7.889C117.686,6.981 117.642,6.395 117.554,6.131C117.466,5.868 117.33,5.671 117.145,5.542C116.961,5.414 116.71,5.349 116.394,5.349C116.013,5.349 115.67,5.452 115.365,5.657C115.061,5.862 114.842,6.158 114.711,6.544C114.579,6.931 114.513,7.573 114.513,8.469L114.513,13.004L112.043,13.004L112.043,3.67Z" style="fill:white;fill-rule:nonzero;"/>
        <path d="M137.188,10.218L138.753,9.972C138.84,10.599 139.085,11.08 139.486,11.414C139.888,11.748 140.449,11.915 141.17,11.915C141.896,11.915 142.435,11.767 142.787,11.471C143.138,11.175 143.314,10.828 143.314,10.429C143.314,10.072 143.159,9.791 142.848,9.585C142.631,9.445 142.092,9.266 141.231,9.049C140.071,8.756 139.267,8.503 138.818,8.289C138.37,8.075 138.03,7.779 137.799,7.401C137.567,7.023 137.452,6.606 137.452,6.149C137.452,5.733 137.547,5.348 137.737,4.993C137.928,4.639 138.187,4.344 138.515,4.11C138.761,3.928 139.097,3.774 139.522,3.648C139.946,3.522 140.402,3.459 140.888,3.459C141.621,3.459 142.264,3.565 142.817,3.776C143.371,3.987 143.78,4.272 144.044,4.633C144.307,4.993 144.489,5.475 144.588,6.079L143.042,6.29C142.971,5.809 142.768,5.434 142.431,5.165C142.094,4.895 141.618,4.76 141.003,4.76C140.276,4.76 139.757,4.88 139.447,5.121C139.136,5.361 138.981,5.642 138.981,5.964C138.981,6.169 139.045,6.354 139.174,6.518C139.303,6.688 139.505,6.829 139.781,6.94C139.939,6.999 140.405,7.133 141.178,7.344C142.297,7.643 143.078,7.888 143.521,8.078C143.963,8.269 144.31,8.545 144.562,8.909C144.814,9.272 144.94,9.723 144.94,10.262C144.94,10.79 144.786,11.286 144.479,11.752C144.171,12.218 143.727,12.578 143.147,12.833C142.567,13.088 141.911,13.215 141.178,13.215C139.965,13.215 139.041,12.963 138.405,12.459C137.77,11.956 137.364,11.209 137.188,10.218Z" style="fill:white;fill-rule:nonzero;"/>
        <path d="M147.762,8.337C147.762,6.609 148.242,5.329 149.203,4.497C150.006,3.805 150.985,3.459 152.139,3.459C153.422,3.459 154.471,3.88 155.285,4.721C156.1,5.562 156.507,6.723 156.507,8.206C156.507,9.407 156.327,10.352 155.967,11.04C155.606,11.729 155.082,12.263 154.393,12.644C153.705,13.025 152.953,13.215 152.139,13.215C150.832,13.215 149.776,12.796 148.971,11.959C148.165,11.121 147.762,9.914 147.762,8.337ZM149.388,8.337C149.388,9.533 149.649,10.428 150.17,11.022C150.692,11.617 151.348,11.915 152.139,11.915C152.924,11.915 153.577,11.616 154.099,11.018C154.62,10.42 154.881,9.509 154.881,8.285C154.881,7.13 154.619,6.256 154.095,5.661C153.57,5.066 152.918,4.769 152.139,4.769C151.348,4.769 150.692,5.065 150.17,5.657C149.649,6.249 149.388,7.142 149.388,8.337Z" style="fill:white;fill-rule:nonzero;"/>
        <rect x="159.856" y="0.12" width="1.582" height="12.884" style="fill:white;fill-rule:nonzero;"/>
        <path d="M171.511,11.853C170.926,12.351 170.362,12.703 169.82,12.908C169.278,13.113 168.696,13.215 168.075,13.215C167.05,13.215 166.261,12.965 165.711,12.464C165.16,11.963 164.885,11.323 164.885,10.543C164.885,10.086 164.989,9.669 165.197,9.291C165.405,8.913 165.677,8.61 166.014,8.381C166.351,8.153 166.73,7.98 167.152,7.863C167.463,7.781 167.931,7.702 168.558,7.625C169.836,7.473 170.776,7.292 171.38,7.081C171.385,6.864 171.388,6.726 171.388,6.667C171.388,6.023 171.239,5.569 170.94,5.305C170.536,4.948 169.935,4.769 169.138,4.769C168.394,4.769 167.845,4.899 167.49,5.16C167.136,5.421 166.874,5.882 166.704,6.544L165.157,6.334C165.298,5.671 165.529,5.137 165.851,4.729C166.174,4.322 166.639,4.009 167.249,3.789C167.858,3.569 168.564,3.459 169.367,3.459C170.164,3.459 170.811,3.553 171.309,3.741C171.807,3.928 172.174,4.164 172.408,4.448C172.642,4.732 172.806,5.091 172.9,5.525C172.953,5.794 172.979,6.281 172.979,6.984L172.979,9.093C172.979,10.564 173.013,11.494 173.08,11.884C173.148,12.273 173.281,12.647 173.48,13.004L171.828,13.004C171.664,12.676 171.558,12.292 171.511,11.853ZM171.38,8.32C170.805,8.554 169.944,8.753 168.796,8.917C168.145,9.011 167.685,9.117 167.416,9.234C167.146,9.351 166.938,9.522 166.792,9.748C166.645,9.974 166.572,10.224 166.572,10.5C166.572,10.921 166.732,11.273 167.051,11.554C167.37,11.835 167.838,11.976 168.453,11.976C169.062,11.976 169.604,11.843 170.079,11.576C170.553,11.31 170.902,10.945 171.125,10.482C171.295,10.125 171.38,9.597 171.38,8.9L171.38,8.32Z" style="fill:white;fill-rule:nonzero;"/>
        <path d="M176.944,13.004L176.944,3.67L178.368,3.67L178.368,5.085C178.731,4.423 179.066,3.987 179.374,3.776C179.682,3.565 180.02,3.459 180.389,3.459C180.922,3.459 181.464,3.629 182.015,3.969L181.47,5.437C181.083,5.209 180.697,5.094 180.31,5.094C179.964,5.094 179.654,5.198 179.378,5.406C179.103,5.614 178.907,5.903 178.79,6.272C178.614,6.834 178.526,7.45 178.526,8.118L178.526,13.004L176.944,13.004Z" style="fill:white;fill-rule:nonzero;"/>
        <rect x="78.562" y="20.967" width="3" height="3" style="fill:white;"/>
        <rect x="92.095" y="20.967" width="3" height="3" style="fill:white;"/>
        <rect x="0" y="21" width="3" height="3" style="fill:white;"/>
        <rect x="54.7" y="21" width="3" height="3" style="fill:white;"/>
        <g transform="matrix(1,0,0,1,-406.812,-53.8999)">
            <text x="568.71px" y="76.249px" style="font-family:'ArialMT', 'Arial', sans-serif;font-size:10px;fill:rgb(102,99,99);">Beta</text>
        </g>
    </g>
</svg>
