<svg version="1.1"
    xmlns="http://www.w3.org/2000/svg"
    xmlns:xlink="http://www.w3.org/1999/xlink" width="512" height="512" viewBox="0 0 512 512">
    <title>speech balloon question icon</title>
    <desc>speech balloon question icon from the IconExperience.com G-Collection. Copyright by INCORS GmbH (www.incors.com).</desc>
    <defs>
        <linearGradient x1="0.18639" y1="0.01548" x2="384.18689" y2="368.01548" gradientUnits="userSpaceOnUse" id="color-1">
            <stop offset="0" stop-color="#77da26"/>
            <stop offset="1" stop-color="#59a31d"/>
        </linearGradient>
        <linearGradient x1="165" y1="64" x2="324.276" y2="305.135" gradientUnits="userSpaceOnUse" id="color-2">
            <stop offset="0" stop-color="#ffffff"/>
            <stop offset="1" stop-color="#e2e8ee"/>
        </linearGradient>
    </defs>
    <g fill="none" fill-rule="none" stroke="none" stroke-width="1" stroke-linecap="butt" stroke-linejoin="miter" stroke-miterlimit="10" stroke-dasharray="" stroke-dashoffset="0" font-family="none" font-weight="none" font-size="none" text-anchor="none" style="mix-blend-mode: normal">
        <path d="M296,512c8,-32 8,-80 -19.5,-104.5c-9,2.5 -18.5,5 -28.5,6c-110,16 -226.5,-46.5 -245,-158.5c-19,-113.5 59.5,-232.5 197,-252c140.5,-20 285,62 308.5,201.5c25,150 -80.5,272 -212.5,307.5z" id="curve1" fill="url(#color-1)" fill-rule="evenodd"/>
        <path d="M225.5,260.5c0,-19 2,-33.5 6.5,-44.5c4,-11 11,-20.5 20.5,-28.5c9.5,-8 17,-15.5 22,-22c4.5,-6.5 7,-14 7,-22c0,-19.5 -8,-29 -25,-29c-7.5,0 -14,2.5 -18.5,8.5c-5,5.5 -7.5,13 -7.5,23l-65.5,0c0,-26 8.5,-46 24,-60.5c16,-14.5 38.5,-21.5 67.5,-21.5c29,0 51,6.5 67,20c15.5,13 23.5,32 23.5,56.5c0,11 -2,20.5 -6.5,29.5c-4,8.5 -11,17.5 -20.5,27l-22,20.5c-6.5,6 -10.5,12.5 -13,18.5c-2.5,6.5 -4,14.5 -4,24.5z M217.5,319.5c0,-10 3.5,-17.5 10.5,-23.5c6.5,-6.5 15.5,-9.5 25.5,-9.5c10.5,0 19,3 26,9.5c7,6 10.5,13.5 10.5,23.5c0,9.5 -3.5,17 -10.5,23.5c-7,6 -15.5,9 -26,9c-10,0 -19,-3 -25.5,-9c-7,-6.5 -10.5,-14 -10.5,-23.5z" id="curve0" fill="url(#color-2)" fill-rule="nonzero"/>
    </g>
</svg>