<?xml version="1.0" encoding="utf-8"?>
<!-- Generator: Adobe Illustrator 16.2.1, SVG Export Plug-In . SVG Version: 6.00 Build 0)  -->
<!DOCTYPE svg PUBLIC "-//W3C//DTD SVG 1.1//EN" "http://www.w3.org/Graphics/SVG/1.1/DTD/svg11.dtd">
<svg version="1.1" id="Ebene_1" xmlns="http://www.w3.org/2000/svg" xmlns:xlink="http://www.w3.org/1999/xlink" x="0px" y="0px"
	 width="200px" height="43px" viewBox="0 0 200 43" enable-background="new 0 0 200 43" xml:space="preserve">
<g>
	<g>
		<path fill="#26CD9C" d="M25.931,16.464c0-5.496-3.614-8.83-8.704-8.83c-5.165,0-8.652,3.817-8.652,8.856s3.663,8.855,8.652,8.855
			C22.189,25.346,25.931,21.961,25.931,16.464z M3.892,39.496V3.893h4.06l0.266,4.709c1.96-3.31,5.65-5.201,9.519-5.167
			c7.279,0.063,12.547,5.293,12.547,13.029c0,7.89-5.167,13.082-12.725,13.082c-3.462,0-7.406-1.451-9.365-4.912v14.862H3.892z"/>
		<path fill="#26CD9C" d="M39.573,3.893l0.266,3.781c1.756-3.258,4.835-4.19,7.71-4.239c2.24-0.038,4.402,0.738,5.931,1.934
			l-1.96,3.716c-1.298-0.941-2.621-1.405-4.377-1.399c-3.971,0.013-7.279,2.774-7.279,7.38v13.946h-4.351V3.893H39.573z"/>
		<path fill="#333F48" d="M105.18,29.011V15.218c0-4.76-2.791-7.736-7.484-7.712c-4.49,0.026-7.586,3.589-7.586,8.094v13.411h-4.312
			V3.89h3.983l0.199,3.784c2.232-2.978,5.255-4.227,8.578-4.214c6.292,0.024,10.96,4.275,10.96,11.707v13.844H105.18z"/>
		<path fill="#26CD9C" d="M61.025,22.562v-0.002c-3.349-3.646-3.107-9.337,0.539-12.685c3.647-3.348,9.337-3.105,12.685,0.541
			c0,0,0.001,0.001,0.001,0.002l3.004-2.759c0-0.001,0-0.002-0.002-0.002c-4.868-5.303-13.144-5.656-18.446-0.786
			c-5.303,4.869-5.653,13.145-0.785,18.447v0.001L61.025,22.562z"/>
		<path fill="#333F48" d="M61.025,22.561c0,0.001,0,0.002,0,0.002c3.35,3.646,9.04,3.889,12.686,0.54
			c3.646-3.348,3.888-9.038,0.54-12.684l-0.002-0.002l3.005-2.759c0,0,0,0.002,0.001,0.002c4.869,5.302,4.518,13.577-0.785,18.447
			c-5.303,4.869-13.577,4.517-18.447-0.787h-0.002L61.025,22.561z"/>
		<path fill="#333F48" d="M127.42,3.449c-7.197,0-13.054,5.854-13.054,13.052s5.856,13.053,13.054,13.053
			s13.053-5.855,13.053-13.053S134.617,3.449,127.42,3.449z M127.42,25.477c-4.949,0-8.976-4.026-8.976-8.976
			c0-4.948,4.026-8.974,8.976-8.974c4.948,0,8.975,4.025,8.975,8.974C136.395,21.45,132.368,25.477,127.42,25.477z"/>
		<path fill="#333F48" d="M182.961,3.449c-7.198,0-13.053,5.854-13.053,13.052s5.854,13.053,13.053,13.053
			c7.196,0,13.052-5.855,13.052-13.053S190.157,3.449,182.961,3.449z M182.961,25.477c-4.949,0-8.977-4.026-8.977-8.976
			c0-4.948,4.027-8.974,8.977-8.974c4.948,0,8.974,4.025,8.974,8.974C191.935,21.45,187.909,25.477,182.961,25.477z"/>
		<polygon fill="#333F48" points="168.133,3.89 165.48,10.186 162.827,16.48 157.565,29.013 152.77,29.013 147.476,16.48 
			144.818,10.186 142.159,3.89 146.939,3.89 150.935,13.595 155.159,24.743 159.373,13.599 163.367,3.89 		"/>
	</g>
</g>
</svg>
